<svg width="500" height="500" viewBox="0 0 500 500" fill="none" xmlns="http://www.w3.org/2000/svg">
<path d="M147.68 287.64H86.83V260.17L147.68 187.83H176.8V261.73H191.89V287.64H176.8V310.12H147.68V287.64ZM147.68 261.73V223.89L115.52 261.73H147.68Z" fill="#407BFF"/>
<path d="M202.3 249.51C202.3 226.65 206.413 210.65 214.64 201.51C222.867 192.37 235.403 187.803 252.25 187.81C260.337 187.81 266.98 188.81 272.18 190.81C276.904 192.512 281.229 195.163 284.89 198.6C287.976 201.546 290.589 204.949 292.64 208.69C294.669 212.596 296.198 216.742 297.19 221.03C299.451 230.191 300.579 239.594 300.55 249.03C300.55 270.843 296.86 286.807 289.48 296.92C282.1 307.033 269.39 312.093 251.35 312.1C241.23 312.1 233.053 310.487 226.82 307.26C220.537 303.981 215.244 299.082 211.49 293.07C208.59 288.643 206.333 282.587 204.72 274.9C203.045 266.542 202.234 258.034 202.3 249.51ZM235.44 249.59C235.44 264.923 236.79 275.38 239.49 280.96C242.19 286.54 246.113 289.343 251.26 289.37C252.893 289.388 254.514 289.082 256.028 288.469C257.542 287.856 258.919 286.949 260.08 285.8C262.573 283.42 264.407 279.66 265.58 274.52C266.753 269.38 267.34 261.38 267.34 250.52C267.34 234.56 265.987 223.83 263.28 218.33C260.573 212.83 256.513 210.083 251.1 210.09C245.58 210.09 241.58 212.893 239.1 218.5C236.62 224.107 235.4 234.47 235.44 249.59Z" fill="#407BFF"/>
<path d="M371.74 287.64H310.89V260.17L371.74 187.83H400.86V261.73H416V287.64H400.86V310.12H371.74V287.64ZM371.74 261.73V223.89L339.59 261.73H371.74Z" fill="#407BFF"/>
<g opacity="0.3">
<path d="M201 145.62C201 145.99 200.89 146.352 200.684 146.66C200.478 146.968 200.186 147.207 199.843 147.349C199.501 147.49 199.124 147.526 198.761 147.453C198.398 147.38 198.065 147.201 197.804 146.939C197.543 146.676 197.366 146.342 197.295 145.979C197.224 145.615 197.262 145.239 197.405 144.897C197.548 144.556 197.79 144.265 198.098 144.06C198.407 143.856 198.77 143.748 199.14 143.75C199.385 143.75 199.628 143.798 199.854 143.893C200.08 143.987 200.286 144.125 200.459 144.298C200.632 144.472 200.768 144.678 200.861 144.905C200.954 145.132 201.001 145.375 201 145.62Z" fill="#407BFF"/>
<path d="M72.97 217.45C73.699 217.45 74.29 216.859 74.29 216.13C74.29 215.401 73.699 214.81 72.97 214.81C72.241 214.81 71.65 215.401 71.65 216.13C71.65 216.859 72.241 217.45 72.97 217.45Z" fill="#407BFF"/>
<path d="M291.05 410.22C292.094 410.22 292.94 409.374 292.94 408.33C292.94 407.286 292.094 406.44 291.05 406.44C290.006 406.44 289.16 407.286 289.16 408.33C289.16 409.374 290.006 410.22 291.05 410.22Z" fill="#407BFF"/>
<path d="M336.5 333.32C337.229 333.32 337.82 332.729 337.82 332C337.82 331.271 337.229 330.68 336.5 330.68C335.771 330.68 335.18 331.271 335.18 332C335.18 332.729 335.771 333.32 336.5 333.32Z" fill="#407BFF"/>
<path d="M424.17 95.62C424.17 95.8811 424.093 96.1363 423.948 96.3533C423.802 96.5704 423.596 96.7396 423.355 96.8395C423.114 96.9394 422.849 96.9656 422.592 96.9146C422.336 96.8637 422.101 96.738 421.917 96.5534C421.732 96.3688 421.606 96.1336 421.555 95.8775C421.504 95.6214 421.531 95.356 421.63 95.1148C421.73 94.8736 421.9 94.6675 422.117 94.5224C422.334 94.3774 422.589 94.3 422.85 94.3C423.2 94.3 423.536 94.4391 423.783 94.6866C424.031 94.9342 424.17 95.2699 424.17 95.62Z" fill="#407BFF"/>
<path d="M172.75 69C172.75 69.2611 172.673 69.5163 172.528 69.7333C172.382 69.9504 172.176 70.1196 171.935 70.2195C171.694 70.3194 171.429 70.3456 171.172 70.2946C170.916 70.2437 170.681 70.118 170.497 69.9334C170.312 69.7488 170.186 69.5136 170.135 69.2575C170.084 69.0015 170.111 68.736 170.21 68.4949C170.31 68.2537 170.48 68.0475 170.697 67.9025C170.914 67.7574 171.169 67.68 171.43 67.68C171.779 67.6826 172.113 67.8225 172.36 68.0695C172.607 68.3165 172.747 68.6507 172.75 69Z" fill="#407BFF"/>
<path d="M277.7 138.26C278.429 138.26 279.02 137.669 279.02 136.94C279.02 136.211 278.429 135.62 277.7 135.62C276.971 135.62 276.38 136.211 276.38 136.94C276.38 137.669 276.971 138.26 277.7 138.26Z" fill="#407BFF"/>
</g>
<path d="M141.23 138.27C153.331 138.27 163.14 128.461 163.14 116.36C163.14 104.259 153.331 94.45 141.23 94.45C129.129 94.45 119.32 104.259 119.32 116.36C119.32 128.461 129.129 138.27 141.23 138.27Z" fill="#407BFF"/>
<path opacity="0.7" d="M141.23 138.27C153.331 138.27 163.14 128.461 163.14 116.36C163.14 104.259 153.331 94.45 141.23 94.45C129.129 94.45 119.32 104.259 119.32 116.36C119.32 128.461 129.129 138.27 141.23 138.27Z" fill="white"/>
<path opacity="0.2" d="M133.68 99.83C130.696 99.8209 127.742 100.423 125 101.6C121.63 105.304 119.63 110.05 119.332 115.049C119.034 120.047 120.457 124.997 123.364 129.075C126.27 133.153 130.486 136.112 135.308 137.461C140.13 138.81 145.269 138.468 149.87 136.49C152.722 133.347 154.601 129.443 155.277 125.252C155.953 121.062 155.398 116.765 153.68 112.884C151.961 109.003 149.152 105.705 145.595 103.389C142.038 101.074 137.885 99.8406 133.64 99.84L133.68 99.83Z" fill="#407BFF"/>
<path opacity="0.2" d="M131.5 105.62C131.5 106.016 131.383 106.402 131.163 106.731C130.943 107.06 130.631 107.316 130.265 107.468C129.9 107.619 129.498 107.659 129.11 107.582C128.722 107.504 128.365 107.314 128.086 107.034C127.806 106.754 127.616 106.398 127.538 106.01C127.461 105.622 127.501 105.22 127.652 104.855C127.804 104.489 128.06 104.177 128.389 103.957C128.718 103.737 129.104 103.62 129.5 103.62C130.03 103.62 130.539 103.831 130.914 104.206C131.289 104.581 131.5 105.09 131.5 105.62Z" fill="#407BFF"/>
<path opacity="0.2" d="M155.06 103.62C155.06 104.016 154.943 104.402 154.723 104.731C154.503 105.06 154.191 105.316 153.825 105.468C153.46 105.619 153.058 105.659 152.67 105.582C152.282 105.504 151.925 105.314 151.646 105.034C151.366 104.754 151.176 104.398 151.098 104.01C151.021 103.622 151.061 103.22 151.212 102.855C151.364 102.489 151.62 102.177 151.949 101.957C152.278 101.737 152.664 101.62 153.06 101.62C153.59 101.62 154.099 101.831 154.474 102.206C154.849 102.581 155.06 103.09 155.06 103.62Z" fill="#407BFF"/>
<path opacity="0.2" d="M151.06 117.9C151.06 118.549 150.868 119.183 150.507 119.722C150.147 120.262 149.635 120.682 149.035 120.93C148.436 121.179 147.776 121.244 147.14 121.117C146.504 120.99 145.919 120.678 145.461 120.219C145.002 119.761 144.69 119.176 144.563 118.54C144.436 117.904 144.501 117.244 144.75 116.645C144.998 116.045 145.418 115.533 145.958 115.173C146.497 114.812 147.131 114.62 147.78 114.62C148.65 114.62 149.484 114.966 150.099 115.581C150.714 116.196 151.06 117.03 151.06 117.9Z" fill="#407BFF"/>
<path opacity="0.2" d="M140.64 127.25C140.64 128.116 140.383 128.963 139.902 129.683C139.421 130.404 138.736 130.965 137.936 131.297C137.136 131.628 136.255 131.715 135.405 131.546C134.556 131.377 133.775 130.96 133.163 130.347C132.55 129.735 132.133 128.954 131.964 128.104C131.795 127.255 131.882 126.374 132.213 125.574C132.545 124.773 133.106 124.089 133.827 123.608C134.547 123.127 135.394 122.87 136.26 122.87C137.422 122.87 138.536 123.331 139.357 124.153C140.179 124.974 140.64 126.088 140.64 127.25Z" fill="#407BFF"/>
<path d="M400.9 380.646C403.339 370.31 396.938 359.953 386.601 357.513C376.265 355.073 365.908 361.475 363.468 371.811C361.029 382.148 367.43 392.505 377.767 394.945C388.103 397.384 398.46 390.982 400.9 380.646Z" fill="#407BFF"/>
<path opacity="0.3" d="M400.9 380.646C403.339 370.31 396.938 359.953 386.601 357.513C376.265 355.073 365.908 361.475 363.468 371.811C361.029 382.148 367.43 392.505 377.767 394.945C388.103 397.384 398.46 390.982 400.9 380.646Z" fill="white"/>
<path opacity="0.4" d="M394.33 361.34C390.067 360.053 385.49 360.287 381.38 362C377.27 363.714 373.883 366.802 371.796 370.735C369.71 374.669 369.055 379.206 369.942 383.569C370.829 387.933 373.203 391.853 376.66 394.66C378.453 395.205 380.316 395.481 382.19 395.48C386.16 395.479 390.032 394.25 393.276 391.96C396.519 389.671 398.974 386.433 400.304 382.693C401.634 378.952 401.774 374.892 400.705 371.069C399.635 367.246 397.408 363.847 394.33 361.34Z" fill="#407BFF"/>
<path d="M363.83 382C343.3 391.66 358.61 399.11 387.54 388.71C414.33 379.08 424.54 366.94 400.54 370.71C401.83 375.76 368.28 388.83 363.83 382Z" fill="#407BFF"/>
<path opacity="0.2" d="M394.1 187.83C367.21 206 332.4 230 322.79 287.64H320.74C330.09 230.64 363.63 206.07 390.53 187.83H394.1Z" fill="black"/>
<path d="M255 368.27C238 368.27 221.19 360.6 213 348.08C207.95 340.34 202.08 324.13 219.56 302.5L221.11 303.76C208.75 319.06 206.47 334.41 214.68 346.99C224.68 362.29 248.27 369.99 268.41 364.51C289.04 358.9 301.56 340.96 302.77 315.29C306.9 227.48 353.55 200.43 387.61 180.68C408.78 168.41 424.07 159.55 420.71 140.84C420.24 138.25 419.21 136.46 417.54 135.36C413.19 132.49 404.69 134.48 394.85 136.77C375.54 141.27 349.1 147.43 333.35 120.64L335.08 119.64C350.08 145.17 374.65 139.44 394.4 134.84C404.69 132.45 413.57 130.38 418.64 133.71C420.79 135.12 422.11 137.35 422.64 140.51C426.25 160.59 409.64 170.23 388.59 182.43C354.92 201.95 308.82 228.68 304.74 315.43C303.48 342.03 290.42 360.64 268.9 366.49C264.366 367.697 259.692 368.296 255 368.27Z" fill="#407BFF"/>
<path opacity="0.2" d="M255 368.27C238 368.27 221.19 360.6 213 348.08C207.95 340.34 202.08 324.13 219.56 302.5L221.11 303.76C208.75 319.06 206.47 334.41 214.68 346.99C224.68 362.29 248.27 369.99 268.41 364.51C289.04 358.9 301.56 340.96 302.77 315.29C306.9 227.48 353.55 200.43 387.61 180.68C408.78 168.41 424.07 159.55 420.71 140.84C420.24 138.25 419.21 136.46 417.54 135.36C413.19 132.49 404.69 134.48 394.85 136.77C375.54 141.27 349.1 147.43 333.35 120.64L335.08 119.64C350.08 145.17 374.65 139.44 394.4 134.84C404.69 132.45 413.57 130.38 418.64 133.71C420.79 135.12 422.11 137.35 422.64 140.51C426.25 160.59 409.64 170.23 388.59 182.43C354.92 201.95 308.82 228.68 304.74 315.43C303.48 342.03 290.42 360.64 268.9 366.49C264.366 367.697 259.692 368.296 255 368.27Z" fill="white"/>
<path d="M312.76 97C317.368 97.0266 321.945 97.7446 326.34 99.13C326.34 99.13 337.34 117.9 338.64 122.2C338.18 126.44 331.03 133.39 331.03 133.39L312.76 97Z" fill="#407BFF"/>
<path opacity="0.3" d="M312.76 97C317.368 97.0266 321.945 97.7446 326.34 99.13C326.34 99.13 337.34 117.9 338.64 122.2C338.18 126.44 331.03 133.39 331.03 133.39L312.76 97Z" fill="white"/>
<path d="M345.34 188.13C341.104 182.95 337.241 177.477 333.78 171.75C332.94 170.303 332.143 168.83 331.39 167.33C330.96 166.48 330.55 165.63 330.15 164.77C329.625 163.933 329.218 163.028 328.94 162.08C327.74 149.41 332.08 140.08 327.94 129.91L311.46 136.35C311.46 136.35 312.86 154.47 316.06 165.35C318.06 172.08 322.54 177.9 326.87 183.29C328.22 184.97 329.52 186.7 330.87 188.39C332.22 190.08 333.58 191.45 334.87 193.04C336.82 195.45 337.46 197.76 335.99 200.6L335.74 201.05C335.32 201.79 337.28 202.63 338.52 201.05C340.52 198.47 340.24 198.63 341.98 196.43C343.04 195.1 344.25 193.65 345.3 192.43C345.806 191.83 346.088 191.072 346.095 190.287C346.102 189.502 345.835 188.739 345.34 188.13Z" fill="#407BFF"/>
<path opacity="0.7" d="M345.34 188.13C341.104 182.95 337.241 177.477 333.78 171.75C332.94 170.303 332.143 168.83 331.39 167.33C330.96 166.48 330.55 165.63 330.15 164.77C329.625 163.933 329.218 163.028 328.94 162.08C327.74 149.41 332.08 140.08 327.94 129.91L311.46 136.35C311.46 136.35 312.86 154.47 316.06 165.35C318.06 172.08 322.54 177.9 326.87 183.29C328.22 184.97 329.52 186.7 330.87 188.39C332.22 190.08 333.58 191.45 334.87 193.04C336.82 195.45 337.46 197.76 335.99 200.6L335.74 201.05C335.32 201.79 337.28 202.63 338.52 201.05C340.52 198.47 340.24 198.63 341.98 196.43C343.04 195.1 344.25 193.65 345.3 192.43C345.806 191.83 346.088 191.072 346.095 190.287C346.102 189.502 345.835 188.739 345.34 188.13Z" fill="white"/>
<path opacity="0.3" d="M341.31 182.92C338.695 185.723 335.792 188.244 332.65 190.44C333.08 190.92 333.5 191.44 333.93 191.9C337.076 189.775 339.933 187.25 342.43 184.39L341.31 182.92Z" fill="#407BFF"/>
<path opacity="0.3" d="M345.34 188.13L345.22 187.99C344.451 188.873 344.003 189.99 343.95 191.16C343.886 191.963 344.016 192.769 344.33 193.51L345.28 192.38C345.777 191.786 346.054 191.04 346.065 190.266C346.075 189.492 345.82 188.738 345.34 188.13Z" fill="#407BFF"/>
<path d="M308.84 109C307.053 111.675 304.91 114.094 302.47 116.19C301.117 117.356 299.634 118.363 298.05 119.19C297.218 119.616 296.356 119.981 295.47 120.28L294.79 120.5L294.57 120.56L294.1 120.69C293.811 120.759 293.516 120.805 293.22 120.83C292.376 120.895 291.528 120.817 290.71 120.6C289.679 120.307 288.69 119.88 287.77 119.33C287.03 118.897 286.312 118.427 285.62 117.92C284.37 116.99 283.174 115.988 282.04 114.92C279.853 112.847 277.845 110.593 276.04 108.18C275.692 107.71 275.52 107.133 275.552 106.55C275.584 105.966 275.819 105.412 276.216 104.983C276.613 104.554 277.147 104.277 277.727 104.199C278.306 104.122 278.895 104.25 279.39 104.56H279.47C281.83 106.06 284.21 107.64 286.53 109.05C287.71 109.74 288.85 110.44 289.98 110.98C290.496 111.25 291.027 111.49 291.57 111.7C291.908 111.849 292.271 111.937 292.64 111.96C292.7 111.96 292.64 111.89 292.27 111.9C292.153 111.893 292.037 111.893 291.92 111.9L291.7 111.95L292.03 111.78C292.474 111.541 292.905 111.277 293.32 110.99C294.215 110.359 295.051 109.65 295.82 108.87C297.567 107.039 299.203 105.106 300.72 103.08C301.551 102.15 302.699 101.565 303.94 101.438C305.181 101.311 306.424 101.653 307.425 102.395C308.427 103.138 309.115 104.228 309.355 105.452C309.594 106.675 309.368 107.945 308.72 109.01L308.84 109Z" fill="#407BFF"/>
<path opacity="0.7" d="M308.84 109C307.053 111.675 304.91 114.094 302.47 116.19C301.117 117.356 299.634 118.363 298.05 119.19C297.218 119.616 296.356 119.981 295.47 120.28L294.79 120.5L294.57 120.56L294.1 120.69C293.811 120.759 293.516 120.805 293.22 120.83C292.376 120.895 291.528 120.817 290.71 120.6C289.679 120.307 288.69 119.88 287.77 119.33C287.03 118.897 286.312 118.427 285.62 117.92C284.37 116.99 283.174 115.988 282.04 114.92C279.853 112.847 277.845 110.593 276.04 108.18C275.692 107.71 275.52 107.133 275.552 106.55C275.584 105.966 275.819 105.412 276.216 104.983C276.613 104.554 277.147 104.277 277.727 104.199C278.306 104.122 278.895 104.25 279.39 104.56H279.47C281.83 106.06 284.21 107.64 286.53 109.05C287.71 109.74 288.85 110.44 289.98 110.98C290.496 111.25 291.027 111.49 291.57 111.7C291.908 111.849 292.271 111.937 292.64 111.96C292.7 111.96 292.64 111.89 292.27 111.9C292.153 111.893 292.037 111.893 291.92 111.9L291.7 111.95L292.03 111.78C292.474 111.541 292.905 111.277 293.32 110.99C294.215 110.359 295.051 109.65 295.82 108.87C297.567 107.039 299.203 105.106 300.72 103.08C301.551 102.15 302.699 101.565 303.94 101.438C305.181 101.311 306.424 101.653 307.425 102.395C308.427 103.138 309.115 104.228 309.355 105.452C309.594 106.675 309.368 107.945 308.72 109.01L308.84 109Z" fill="white"/>
<path d="M272.29 102.42L273.46 104.42C273.46 104.42 274.35 107.04 276.14 107.52L281 105.95L280.75 105.54C280.13 104.6 280.2 102.77 280.41 101.25C280.62 99.73 279.84 99.68 279.26 100.06C278.849 100.533 278.56 101.099 278.42 101.71C278.181 101.38 277.917 101.069 277.63 100.78L276.15 99.3C275.84 98.9965 275.426 98.8217 274.992 98.8106C274.558 98.7994 274.136 98.9528 273.81 99.24L272.61 100.31C272.325 100.573 272.139 100.926 272.08 101.309C272.022 101.692 272.096 102.084 272.29 102.42Z" fill="#407BFF"/>
<path opacity="0.7" d="M272.29 102.42L273.46 104.42C273.46 104.42 274.35 107.04 276.14 107.52L281 105.95L280.75 105.54C280.13 104.6 280.2 102.77 280.41 101.25C280.62 99.73 279.84 99.68 279.26 100.06C278.849 100.533 278.56 101.099 278.42 101.71C278.181 101.38 277.917 101.069 277.63 100.78L276.15 99.3C275.84 98.9965 275.426 98.8217 274.992 98.8106C274.558 98.7994 274.136 98.9528 273.81 99.24L272.61 100.31C272.325 100.573 272.139 100.926 272.08 101.309C272.022 101.692 272.096 102.084 272.29 102.42Z" fill="white"/>
<path d="M317.67 95.22C312.279 96.6489 307.116 98.8268 302.33 101.69C301.583 102.157 300.997 102.842 300.651 103.651C300.304 104.461 300.213 105.357 300.39 106.22C302.32 115.66 306.71 128.3 311.45 136.35L333.56 127.2C333.71 123.3 328.34 110.68 322.87 98.48C321.89 96.29 320 94.66 317.67 95.22Z" fill="#407BFF"/>
<path opacity="0.8" d="M317.67 95.22C312.279 96.6489 307.116 98.8268 302.33 101.69C301.583 102.157 300.997 102.842 300.651 103.651C300.304 104.461 300.213 105.357 300.39 106.22C302.32 115.66 306.71 128.3 311.45 136.35L333.56 127.2C333.71 123.3 328.34 110.68 322.87 98.48C321.89 96.29 320 94.66 317.67 95.22Z" fill="white"/>
<path opacity="0.3" d="M326.3 106.21L321.91 104.74C322.91 107.31 326.44 110.56 328.91 112.47C328.11 110.47 327.22 108.37 326.3 106.21Z" fill="#407BFF"/>
<path d="M316.22 85.32C314.39 81.84 310.44 80.09 305.7 80.48C301.7 80.82 298.16 84.9 298.58 87.1C299 89.3 302.36 90.24 303 91L300.23 93C299.902 93.2369 299.625 93.5376 299.416 93.8843C299.207 94.2309 299.071 94.6162 299.015 95.017C298.959 95.4178 298.984 95.8258 299.09 96.2164C299.196 96.607 299.379 96.9722 299.63 97.29C300.8 98.77 302.34 100.29 303.23 101.41C310.89 101.21 316.56 98.29 318.61 95.48C317.84 91.92 318 88.78 316.22 85.32Z" fill="#407BFF"/>
<path opacity="0.8" d="M316.22 85.32C314.39 81.84 310.44 80.09 305.7 80.48C301.7 80.82 298.16 84.9 298.58 87.1C299 89.3 302.36 90.24 303 91L300.23 93C299.902 93.2369 299.625 93.5376 299.416 93.8843C299.207 94.2309 299.071 94.6162 299.015 95.017C298.959 95.4178 298.984 95.8258 299.09 96.2164C299.196 96.607 299.379 96.9722 299.63 97.29C300.8 98.77 302.34 100.29 303.23 101.41C310.89 101.21 316.56 98.29 318.61 95.48C317.84 91.92 318 88.78 316.22 85.32Z" fill="white"/>
<path d="M312.46 87.48C313.004 88.8746 313.122 90.3991 312.799 91.8609C312.477 93.3226 311.728 94.6559 310.648 95.6923C309.568 96.7286 308.205 97.4215 306.731 97.6833C305.257 97.9451 303.739 97.7641 302.368 97.1632C300.997 96.5623 299.835 95.5684 299.029 94.3072C298.223 93.046 297.809 91.574 297.839 90.0775C297.869 88.5809 298.342 87.1269 299.198 85.8992C300.055 84.6714 301.256 83.7252 302.65 83.18C304.521 82.451 306.605 82.4944 308.445 83.3006C310.284 84.1068 311.728 85.61 312.46 87.48Z" fill="#263238"/>
<path d="M377.39 177.6C377.28 174.31 377.13 174.6 377.04 171.83C376.98 170.13 376.97 168.24 376.96 166.61C376.957 165.836 376.686 165.087 376.194 164.489C375.702 163.891 375.019 163.482 374.26 163.33C372.94 163.06 371.61 162.81 370.26 162.53C368.53 162.16 366.82 161.76 365.13 161.27C363.81 160.89 362.51 160.47 361.22 160C359.93 159.53 358.48 159 357.14 158.38C355.56 157.71 354 156.99 352.46 156.24C350.73 155.42 349.02 154.56 347.31 153.69C340.73 142.8 340.59 135.62 333.53 127.2L318.37 134.06C318.37 134.06 329.51 153.82 337.09 162.2C341.46 167.02 348.31 169.2 354.42 170.78C358.83 171.91 363.3 172.78 367.77 173.61C369.51 173.93 371.4 174.05 372.9 175.09C374.01 175.941 374.771 177.168 375.04 178.54C375.107 178.82 375.167 179.1 375.22 179.38C375.41 180.22 377.46 179.58 377.39 177.6Z" fill="#407BFF"/>
<path opacity="0.8" d="M377.39 177.6C377.28 174.31 377.13 174.6 377.04 171.83C376.98 170.13 376.97 168.24 376.96 166.61C376.957 165.836 376.686 165.087 376.194 164.489C375.702 163.891 375.019 163.482 374.26 163.33C372.94 163.06 371.61 162.81 370.26 162.53C368.53 162.16 366.82 161.76 365.13 161.27C363.81 160.89 362.51 160.47 361.22 160C359.93 159.53 358.48 159 357.14 158.38C355.56 157.71 354 156.99 352.46 156.24C350.73 155.42 349.02 154.56 347.31 153.69C340.73 142.8 340.59 135.62 333.53 127.2L318.37 134.06C318.37 134.06 329.51 153.82 337.09 162.2C341.46 167.02 348.31 169.2 354.42 170.78C358.83 171.91 363.3 172.78 367.77 173.61C369.51 173.93 371.4 174.05 372.9 175.09C374.01 175.941 374.771 177.168 375.04 178.54C375.107 178.82 375.167 179.1 375.22 179.38C375.41 180.22 377.46 179.58 377.39 177.6Z" fill="white"/>
<path opacity="0.3" d="M369.7 162.4C369.1 162.27 368.5 162.14 367.89 161.99C367.94 165.45 366.32 171.41 365.73 173.22L367.63 173.58C368.875 169.978 369.573 166.209 369.7 162.4Z" fill="#407BFF"/>
<path opacity="0.3" d="M377 166.61C376.997 165.837 376.728 165.089 376.238 164.492C375.748 163.894 375.067 163.484 374.31 163.33L373.31 163.14C373.471 164.277 374.052 165.312 374.94 166.04C375.511 166.568 376.195 166.958 376.94 167.18C377 167 377 166.8 377 166.61Z" fill="#407BFF"/>
<path d="M311.05 87.54C311.45 89.06 309.75 90.65 308.4 89.34C307.14 87.9891 305.761 86.7541 304.28 85.65C302.89 84.78 304.74 83.26 306.93 83.85C307.865 84.0848 308.728 84.5434 309.446 85.1862C310.163 85.8291 310.714 86.6369 311.05 87.54Z" fill="white"/>
<path d="M311.16 135.86C310.46 136.12 311.74 137.32 311.74 137.32C311.74 137.32 325.74 132.53 334.24 127.6C334.261 127.302 334.21 127.002 334.091 126.728C333.973 126.453 333.791 126.21 333.56 126.02C326.285 129.721 318.807 133.006 311.16 135.86Z" fill="#407BFF"/>
<path opacity="0.5" d="M311.16 135.86C310.46 136.12 311.74 137.32 311.74 137.32C311.74 137.32 325.74 132.53 334.24 127.6C334.261 127.302 334.21 127.002 334.091 126.728C333.973 126.453 333.791 126.21 333.56 126.02C326.285 129.721 318.807 133.006 311.16 135.86Z" fill="white"/>
<path d="M321.46 94.56C324.22 95.96 326.81 97.43 329.46 99.06C330.75 99.88 332.03 100.71 333.3 101.61C334.57 102.51 335.83 103.43 337.1 104.47L337.57 104.86L338.16 105.4C338.512 105.715 338.845 106.048 339.16 106.4C339.48 106.75 339.75 107.09 340.01 107.4C340.27 107.71 340.55 108.08 340.78 108.4C341.712 109.686 342.573 111.021 343.36 112.4C344.91 115.074 346.247 117.866 347.36 120.75C347.566 121.295 347.576 121.894 347.39 122.446C347.204 122.998 346.832 123.468 346.338 123.777C345.845 124.086 345.259 124.214 344.682 124.14C344.104 124.065 343.57 123.793 343.17 123.37L343.12 123.31C341.12 121.18 339.19 118.94 337.25 116.85C335.31 114.76 333.34 112.64 331.71 111.71C329.44 110.3 326.91 108.89 324.4 107.51L316.84 103.31C315.668 102.689 314.79 101.629 314.4 100.361C314.01 99.093 314.139 97.7223 314.76 96.55C315.381 95.3777 316.441 94.5 317.709 94.11C318.977 93.7199 320.348 93.8494 321.52 94.47L321.46 94.56Z" fill="#407BFF"/>
<path opacity="0.8" d="M321.46 94.56C324.22 95.96 326.81 97.43 329.46 99.06C330.75 99.88 332.03 100.71 333.3 101.61C334.57 102.51 335.83 103.43 337.1 104.47L337.57 104.86L338.16 105.4C338.512 105.715 338.845 106.048 339.16 106.4C339.48 106.75 339.75 107.09 340.01 107.4C340.27 107.71 340.55 108.08 340.78 108.4C341.712 109.686 342.573 111.021 343.36 112.4C344.91 115.074 346.247 117.866 347.36 120.75C347.566 121.295 347.576 121.894 347.39 122.446C347.204 122.998 346.832 123.468 346.338 123.777C345.845 124.086 345.259 124.214 344.682 124.14C344.104 124.065 343.57 123.793 343.17 123.37L343.12 123.31C341.12 121.18 339.19 118.94 337.25 116.85C335.31 114.76 333.34 112.64 331.71 111.71C329.44 110.3 326.91 108.89 324.4 107.51L316.84 103.31C315.668 102.689 314.79 101.629 314.4 100.361C314.01 99.093 314.139 97.7223 314.76 96.55C315.381 95.3777 316.441 94.5 317.709 94.11C318.977 93.7199 320.348 93.8494 321.52 94.47L321.46 94.56Z" fill="white"/>
<path d="M349.73 125.74L348.88 123.61C348.88 123.61 348.41 120.89 346.72 120.13L341.72 120.92L341.89 121.36C342.35 122.36 342 124.19 341.55 125.65C341.1 127.11 341.86 127.3 342.5 127.01C342.86 126.85 343.21 126.2 343.59 125.51C343.776 125.858 343.987 126.192 344.22 126.51L345.45 128.2C345.707 128.55 346.087 128.79 346.514 128.872C346.94 128.953 347.382 128.871 347.75 128.64L349.11 127.77C349.428 127.552 349.663 127.233 349.776 126.864C349.888 126.495 349.872 126.099 349.73 125.74Z" fill="#407BFF"/>
<path opacity="0.8" d="M349.73 125.74L348.88 123.61C348.88 123.61 348.41 120.89 346.72 120.13L341.72 120.92L341.89 121.36C342.35 122.36 342 124.19 341.55 125.65C341.1 127.11 341.86 127.3 342.5 127.01C342.86 126.85 343.21 126.2 343.59 125.51C343.776 125.858 343.987 126.192 344.22 126.51L345.45 128.2C345.707 128.55 346.087 128.79 346.514 128.872C346.94 128.953 347.382 128.871 347.75 128.64L349.11 127.77C349.428 127.552 349.663 127.233 349.776 126.864C349.888 126.495 349.872 126.099 349.73 125.74Z" fill="white"/>
<path opacity="0.3" d="M317.24 106.06L316.02 106.16L308.53 124.24C308.939 124.269 309.351 124.236 309.75 124.14C309.75 124.14 319.51 120.5 322.46 119.14C320.48 115.05 317.24 106.06 317.24 106.06Z" fill="#407BFF"/>
<path d="M303.57 110.8C304.48 115.526 306.17 120.068 308.57 124.24C312.23 122.98 318.33 120.6 321.29 119.24C319.3 114.975 317.535 110.609 316 106.16C312.87 106.37 306 109 303.57 110.8Z" fill="white"/>
<path opacity="0.3" d="M311 114.71C310.854 115.199 310.566 115.634 310.173 115.959C309.779 116.284 309.298 116.486 308.791 116.538C308.283 116.59 307.771 116.49 307.32 116.251C306.869 116.012 306.499 115.644 306.257 115.195C306.015 114.746 305.911 114.235 305.96 113.727C306.008 113.219 306.206 112.736 306.529 112.341C306.851 111.945 307.284 111.654 307.772 111.504C308.26 111.355 308.781 111.353 309.27 111.5C309.925 111.697 310.475 112.145 310.799 112.747C311.124 113.349 311.196 114.055 311 114.71Z" fill="#407BFF"/>
<path opacity="0.6" d="M312.91 111.27C312.871 111.437 312.782 111.588 312.656 111.704C312.53 111.82 312.371 111.894 312.201 111.918C312.032 111.942 311.859 111.915 311.705 111.838C311.551 111.762 311.424 111.642 311.341 111.492C311.257 111.342 311.22 111.171 311.236 111C311.251 110.83 311.318 110.668 311.427 110.535C311.536 110.403 311.683 110.307 311.847 110.26C312.012 110.212 312.187 110.216 312.35 110.27C312.553 110.335 312.723 110.474 312.827 110.66C312.931 110.845 312.961 111.063 312.91 111.27Z" fill="#407BFF"/>
<path opacity="0.6" d="M315.15 110.4C315.127 110.516 315.079 110.626 315.011 110.722C314.942 110.819 314.855 110.9 314.753 110.961C314.651 111.022 314.538 111.061 314.421 111.075C314.303 111.09 314.184 111.079 314.071 111.045C313.958 111.011 313.853 110.953 313.763 110.876C313.673 110.799 313.6 110.704 313.55 110.597C313.499 110.49 313.471 110.374 313.467 110.256C313.464 110.137 313.485 110.02 313.53 109.91C313.562 109.804 313.615 109.706 313.685 109.62C313.755 109.535 313.841 109.464 313.939 109.412C314.036 109.36 314.143 109.328 314.253 109.317C314.363 109.306 314.474 109.318 314.58 109.35C314.794 109.415 314.974 109.561 315.081 109.758C315.187 109.955 315.212 110.185 315.15 110.4Z" fill="#407BFF"/>
<path opacity="0.5" d="M318.29 118.19L309.04 121.84L308.49 120.02L317.73 116.37L318.29 118.19Z" fill="#407BFF"/>
<path opacity="0.2" d="M267.26 257.17C267.239 262.993 266.676 268.801 265.58 274.52C264.4 279.66 262.567 283.42 260.08 285.8C258.922 286.95 257.546 287.858 256.034 288.47C254.521 289.083 252.902 289.389 251.27 289.37C246.13 289.37 242.207 286.567 239.5 280.96C239.024 279.953 238.62 278.914 238.29 277.85C232.574 282.76 227.251 288.109 222.37 293.85L217.06 300.11C219.918 303.006 223.215 305.433 226.83 307.3C233.057 310.52 241.23 312.133 251.35 312.14C253.13 312.14 254.85 312.09 256.52 311.99C262.643 302.931 267.709 293.201 271.62 282.99L286.47 244.27L267.26 257.17Z" fill="black"/>
<path d="M133.39 310L150.89 327.5L199.89 281.33C183 274.88 150.16 293.19 133.39 310Z" fill="#263238"/>
<path d="M194.42 371C188.83 365.4 176.92 353.5 176.92 353.5L223.09 304.5C229.5 321.35 211.19 354.22 194.42 371Z" fill="#263238"/>
<path d="M261.4 260.7L280.49 223.89L243.68 243C231.856 249.132 220.939 256.872 211.24 266L148.49 325.07L179.32 355.9L238.39 293.15C247.522 283.448 255.266 272.528 261.4 260.7Z" fill="#407BFF"/>
<path opacity="0.6" d="M261.4 260.7L280.49 223.89L243.68 243C231.856 249.132 220.939 256.872 211.24 266L148.49 325.07L179.32 355.9L238.39 293.15C247.522 283.448 255.266 272.528 261.4 260.7Z" fill="white"/>
<path d="M222.2 295.08C229.324 295.08 235.1 289.304 235.1 282.18C235.1 275.056 229.324 269.28 222.2 269.28C215.076 269.28 209.3 275.056 209.3 282.18C209.3 289.304 215.076 295.08 222.2 295.08Z" fill="white"/>
<path d="M222.2 290.47C226.778 290.47 230.49 286.758 230.49 282.18C230.49 277.602 226.778 273.89 222.2 273.89C217.622 273.89 213.91 277.602 213.91 282.18C213.91 286.758 217.622 290.47 222.2 290.47Z" fill="#407BFF"/>
<path opacity="0.3" d="M189.75 344.82L159.56 314.63L184.28 291.37L213.01 320.11L189.75 344.82Z" fill="#407BFF"/>
<path d="M140.22 337.62C117.62 339.45 110.13 353.92 107.57 373.15C106.27 382.96 105.69 392.89 97.46 398.63C96.9649 398.967 96.5921 399.454 96.3975 400.02C96.2029 400.587 96.1969 401.2 96.3805 401.77C96.564 402.34 96.9272 402.835 97.4157 403.181C97.9041 403.527 98.4916 403.706 99.09 403.69C129.43 402.74 143.58 387.89 145.36 381.69C144.893 384.931 144.057 388.108 142.87 391.16C142.652 391.699 142.609 392.292 142.748 392.856C142.887 393.421 143.2 393.927 143.643 394.302C144.087 394.678 144.637 394.904 145.217 394.949C145.796 394.993 146.375 394.854 146.87 394.55C155.38 389.22 166.06 379.4 166.77 363.47C160.51 354.6 140.22 337.62 140.22 337.62Z" fill="#407BFF"/>
<path opacity="0.2" d="M140.22 337.62C117.62 339.45 110.13 353.92 107.57 373.15C106.27 382.96 105.69 392.89 97.46 398.63C96.9649 398.967 96.5921 399.454 96.3975 400.02C96.2029 400.587 96.1969 401.2 96.3805 401.77C96.564 402.34 96.9272 402.835 97.4157 403.181C97.9041 403.527 98.4916 403.706 99.09 403.69C129.43 402.74 143.58 387.89 145.36 381.69C144.893 384.931 144.057 388.108 142.87 391.16C142.652 391.699 142.609 392.292 142.748 392.856C142.887 393.421 143.2 393.927 143.643 394.302C144.087 394.678 144.637 394.904 145.217 394.949C145.796 394.993 146.375 394.854 146.87 394.55C155.38 389.22 166.06 379.4 166.77 363.47C160.51 354.6 140.22 337.62 140.22 337.62Z" fill="white"/>
<path d="M170.28 370.3L134.08 334.1L153.36 329.93L174.45 351.02L170.28 370.3Z" fill="#407BFF"/>
</svg>
