<svg width="120" height="120" viewBox="0 0 120 120" fill="none" xmlns="http://www.w3.org/2000/svg">
<rect width="120" height="120" rx="16" fill="#F2F5F9"/>
<path d="M90.2044 47.9273L64.0684 26.6231C62.74 25.5398 61.12 25 59.5 25C57.88 25 56.26 25.5398 54.9316 26.6231L28.7956 47.9273C28.2736 48.3492 28 49.0535 28 49.6898C28 50.2797 28.2448 50.8804 28.7956 51.3273L54.9352 72.6315C56.2636 73.7147 57.8836 74.2546 59.5036 74.2546C61.1236 74.2546 62.7436 73.7147 64.072 72.6315L90.2116 51.3273C90.7588 50.8804 91.0072 50.2797 91.0072 49.6898C91.0072 49.0535 90.73 48.3492 90.2116 47.9273H90.2044Z" fill="#97A3B6"/>
<rect x="34" y="35" width="51" height="38" rx="4" fill="white"/>
<path fill-rule="evenodd" clip-rule="evenodd" d="M52 52C52 53.1046 51.1046 54 50 54C48.8954 54 48 53.1046 48 52C48 50.8954 48.8954 50 50 50C51.1046 50 52 50.8954 52 52ZM61 52C61 53.1046 60.1046 54 59 54C57.8954 54 57 53.1046 57 52C57 50.8954 57.8954 50 59 50C60.1046 50 61 50.8954 61 52ZM68 54C69.1046 54 70 53.1046 70 52C70 50.8954 69.1046 50 68 50C66.8954 50 66 50.8954 66 52C66 53.1046 66.8954 54 68 54Z" fill="#CDD5E0"/>
<path fill-rule="evenodd" clip-rule="evenodd" d="M28 49.6898C28 50.2797 28.2448 50.8803 28.7956 51.3272L54.9352 72.6314C56.2636 73.7147 57.8836 74.2545 59.5036 74.2545C61.1236 74.2545 62.7436 73.7147 64.072 72.6314L90.2116 51.3272C90.7052 50.9241 90.9557 50.3959 91 49.8634V91.8366H28V49.6898Z" fill="#E3E8EF"/>
<path d="M90.2042 90.1959L64.0646 68.8917C61.4078 66.7288 57.5846 66.7288 54.9278 68.8917L28.7954 90.1959C27.2258 91.4723 28.1366 93.9999 30.167 93.9999H88.8362C90.863 93.9999 91.7738 91.4758 90.2078 90.1959H90.2042Z" fill="#CDD5E0"/>
</svg>
