<svg width="541" height="349" viewBox="0 0 541 349" fill="none" xmlns="http://www.w3.org/2000/svg">
<path d="M0 13C0 6.37259 5.37258 1 12 1H528C534.627 1 540 6.37258 540 13V337C540 343.627 534.627 349 528 349H12C5.37258 349 0 343.627 0 337V13Z" fill="url(#paint0_linear_602_18731)"/>
<path fill-rule="evenodd" clip-rule="evenodd" d="M528 2H12C5.92487 2 1 6.92487 1 13V337C1 343.075 5.92487 348 12 348H528C534.075 348 539 343.075 539 337V13C539 6.92487 534.075 2 528 2ZM12 1C5.37258 1 0 6.37259 0 13V337C0 343.627 5.37258 349 12 349H528C534.627 349 540 343.627 540 337V13C540 6.37258 534.627 1 528 1H12Z" fill="#13244E"/>
<path d="M256.712 20.9999H254.168L248.76 12.0399H248.696C248.707 12.2746 248.717 12.5252 248.728 12.7919C248.749 13.0479 248.765 13.3146 248.776 13.5919C248.787 13.8586 248.797 14.1306 248.808 14.4079C248.819 14.6852 248.829 14.9626 248.84 15.2399V20.9999H247V9.57589H249.528L254.92 18.4719H254.968C254.957 18.2586 254.947 18.0292 254.936 17.7839C254.925 17.5279 254.915 17.2666 254.904 16.9999C254.904 16.7332 254.899 16.4612 254.888 16.1839C254.877 15.9066 254.867 15.6399 254.856 15.3839V9.57589H256.712V20.9999Z" fill="white"/>
<path d="M267.24 16.6479C267.24 17.3732 267.143 18.0132 266.951 18.5679C266.76 19.1226 266.482 19.5972 266.119 19.9919C265.767 20.3759 265.33 20.6692 264.807 20.8719C264.295 21.0639 263.725 21.1599 263.095 21.1599C262.498 21.1599 261.949 21.0639 261.448 20.8719C260.946 20.6692 260.509 20.3759 260.135 19.9919C259.773 19.5972 259.49 19.1226 259.288 18.5679C259.085 18.0132 258.984 17.3732 258.984 16.6479C258.984 15.6879 259.149 14.8772 259.479 14.2159C259.81 13.5439 260.285 13.0372 260.904 12.6959C261.533 12.3439 262.274 12.1679 263.128 12.1679C263.938 12.1679 264.647 12.3439 265.255 12.6959C265.874 13.0372 266.36 13.5439 266.712 14.2159C267.063 14.8772 267.24 15.6879 267.24 16.6479ZM261.047 16.6479C261.047 17.2559 261.117 17.7786 261.255 18.2159C261.405 18.6426 261.629 18.9679 261.928 19.1919C262.237 19.4159 262.632 19.5279 263.111 19.5279C263.602 19.5279 263.997 19.4159 264.295 19.1919C264.605 18.9679 264.829 18.6426 264.967 18.2159C265.106 17.7786 265.175 17.2559 265.175 16.6479C265.175 16.0292 265.101 15.5119 264.951 15.0959C264.813 14.6692 264.589 14.3492 264.279 14.1359C263.981 13.9119 263.591 13.7999 263.111 13.7999C262.386 13.7999 261.858 14.0452 261.527 14.5359C261.207 15.0266 261.047 15.7306 261.047 16.6479Z" fill="white"/>
<path d="M272.684 19.5439C272.94 19.5439 273.185 19.5226 273.42 19.4799C273.654 19.4266 273.873 19.3679 274.076 19.3039V20.8079C273.862 20.9039 273.585 20.9839 273.244 21.0479C272.902 21.1226 272.545 21.1599 272.172 21.1599C271.681 21.1599 271.233 21.0799 270.828 20.9199C270.433 20.7492 270.113 20.4612 269.868 20.0559C269.633 19.6506 269.516 19.0852 269.516 18.3599V13.8479H268.348V12.9679L269.628 12.2639L270.268 10.4239H271.532V12.3279H273.996V13.8479H271.532V18.3439C271.532 18.7492 271.638 19.0532 271.852 19.2559C272.065 19.4479 272.342 19.5439 272.684 19.5439Z" fill="white"/>
<path d="M277.84 12.3279V20.9999H275.824V12.3279H277.84ZM276.832 8.98389C277.13 8.98389 277.392 9.06389 277.616 9.22389C277.84 9.37322 277.952 9.64522 277.952 10.0399C277.952 10.4239 277.84 10.7012 277.616 10.8719C277.392 11.0319 277.13 11.1119 276.832 11.1119C276.522 11.1119 276.256 11.0319 276.032 10.8719C275.818 10.7012 275.712 10.4239 275.712 10.0399C275.712 9.64522 275.818 9.37322 276.032 9.22389C276.256 9.06389 276.522 8.98389 276.832 8.98389Z" fill="white"/>
<path d="M283.921 21.1599C283.1 21.1599 282.385 21.0052 281.777 20.6959C281.18 20.3759 280.716 19.8906 280.385 19.2399C280.065 18.5786 279.905 17.7359 279.905 16.7119C279.905 15.6452 280.081 14.7812 280.433 14.1199C280.796 13.4479 281.292 12.9572 281.921 12.6479C282.551 12.3279 283.271 12.1679 284.081 12.1679C284.625 12.1679 285.111 12.2212 285.537 12.3279C285.964 12.4346 286.327 12.5626 286.625 12.7119L286.033 14.2959C285.703 14.1679 285.372 14.0612 285.041 13.9759C284.711 13.8799 284.391 13.8319 284.081 13.8319C283.601 13.8319 283.201 13.9386 282.881 14.1519C282.572 14.3652 282.343 14.6852 282.193 15.1119C282.044 15.5279 281.969 16.0559 281.969 16.6959C281.969 17.3146 282.044 17.8319 282.193 18.2479C282.353 18.6639 282.588 18.9786 282.897 19.1919C283.207 19.3946 283.591 19.4959 284.049 19.4959C284.54 19.4959 284.972 19.4372 285.345 19.3199C285.719 19.2026 286.071 19.0426 286.401 18.8399V20.5839C286.071 20.7866 285.713 20.9306 285.329 21.0159C284.956 21.1119 284.487 21.1599 283.921 21.1599Z" fill="white"/>
<path d="M291.921 12.1679C292.7 12.1679 293.366 12.3279 293.921 12.6479C294.486 12.9572 294.924 13.4052 295.233 13.9919C295.542 14.5679 295.697 15.2719 295.697 16.1039V17.1279H289.969C289.99 17.9172 290.209 18.5306 290.625 18.9679C291.041 19.3946 291.617 19.6079 292.353 19.6079C292.918 19.6079 293.42 19.5546 293.857 19.4479C294.305 19.3306 294.764 19.1652 295.233 18.9519V20.5679C294.806 20.7706 294.364 20.9199 293.905 21.0159C293.446 21.1119 292.897 21.1599 292.257 21.1599C291.414 21.1599 290.662 20.9999 290.001 20.6799C289.35 20.3492 288.838 19.8532 288.465 19.1919C288.102 18.5306 287.921 17.7092 287.921 16.7279C287.921 15.7359 288.086 14.9039 288.417 14.2319C288.758 13.5492 289.228 13.0372 289.825 12.6959C290.422 12.3439 291.121 12.1679 291.921 12.1679ZM291.921 13.6559C291.388 13.6559 290.95 13.8319 290.609 14.1839C290.278 14.5252 290.081 15.0372 290.017 15.7199H293.745C293.745 15.3146 293.676 14.9572 293.537 14.6479C293.409 14.3386 293.212 14.0986 292.945 13.9279C292.678 13.7466 292.337 13.6559 291.921 13.6559Z" fill="white"/>
<g clip-path="url(#clip0_602_18731)">
<path opacity="0.6" d="M2 37C2 32.5817 5.58172 29 10 29H120V311H2V37Z" fill="#212C3B"/>
<path d="M8 48C8 44.6863 10.6863 42 14 42H104C107.314 42 110 44.6863 110 48V84C110 87.3137 107.314 90 104 90H14C10.6863 90 8 87.3137 8 84V48Z" fill="url(#paint1_linear_602_18731)"/>
<path fill-rule="evenodd" clip-rule="evenodd" d="M14 41C10.134 41 7 44.134 7 48V87C7 90.866 10.134 94 14 94H104C107.866 94 111 90.866 111 87V48C111 44.134 107.866 41 104 41H14ZM14 42C10.6863 42 8 44.6863 8 48V84C8 84.4432 8.04806 84.8753 8.13926 85.2911C8.72986 87.9843 11.1295 90 14 90H104C106.87 90 109.27 87.9843 109.861 85.2911C109.952 84.8753 110 84.4432 110 84V48C110 44.6863 107.314 42 104 42H14Z" fill="#2653C5"/>
<path d="M10 48C10 45.7909 11.7909 44 14 44H103C105.209 44 107 45.7909 107 48V55C107 57.2091 105.209 59 103 59H14C11.7909 59 10 57.2091 10 55V48Z" fill="#95E5FC"/>
<g filter="url(#filter0_d_602_18731)">
<path fill-rule="evenodd" clip-rule="evenodd" d="M105.586 57.5858C106.367 56.8047 107.633 56.8047 108.414 57.5858L114.707 63.8787C115.879 65.0503 115.879 66.9497 114.707 68.1213L108.414 74.4142C107.633 75.1953 106.367 75.1953 105.586 74.4142C104.805 73.6332 104.805 72.3668 105.586 71.5858L111.172 66L105.586 60.4142C104.805 59.6332 104.805 58.3668 105.586 57.5858Z" fill="url(#paint2_linear_602_18731)"/>
</g>
<g filter="url(#filter1_d_602_18731)">
<path fill-rule="evenodd" clip-rule="evenodd" d="M105.232 57.2322C106.209 56.2559 107.791 56.2559 108.768 57.2322L108.414 57.5858M108.061 57.9393C107.475 57.3536 106.525 57.3536 105.939 57.9393C105.354 58.5251 105.354 59.4749 105.939 60.0607L111.879 66L105.939 71.9393C105.354 72.5251 105.354 73.4749 105.939 74.0607C106.525 74.6464 107.475 74.6464 108.061 74.0607L114.354 67.7678C115.33 66.7915 115.33 65.2085 114.354 64.2322L108.061 57.9393ZM105.232 57.2322C104.256 58.2085 104.256 59.7915 105.232 60.7678L105.232 57.2322ZM108.768 57.2322L115.061 63.5251C116.427 64.892 116.427 67.108 115.061 68.4749L108.768 74.7678C107.791 75.7441 106.209 75.7441 105.232 74.7678C104.256 73.7915 104.256 72.2085 105.232 71.2322L110.464 66L105.232 60.7678" fill="url(#paint3_linear_602_18731)"/>
</g>
<path d="M120 29H539V311H120V29Z" fill="#D9D9D9"/>
<path d="M120 29H539V311H120V29Z" fill="url(#paint4_linear_602_18731)"/>
<path d="M128 39C128 37.8954 128.895 37 130 37H529C530.105 37 531 37.8954 531 39V163C531 164.105 530.105 165 529 165H130C128.895 165 128 164.105 128 163V39Z" fill="#293955"/>
<path fill-rule="evenodd" clip-rule="evenodd" d="M529 37.75H130C129.31 37.75 128.75 38.3096 128.75 39V163C128.75 163.69 129.31 164.25 130 164.25H529C529.69 164.25 530.25 163.69 530.25 163V39C530.25 38.3096 529.69 37.75 529 37.75ZM130 37C128.895 37 128 37.8954 128 39V163C128 164.105 128.895 165 130 165H529C530.105 165 531 164.105 531 163V39C531 37.8954 530.105 37 529 37H130Z" fill="white" fill-opacity="0.2"/>
</g>
<path d="M0 37C0 31.4772 4.47715 27 10 27H541L537 31H10C6.68629 31 4 33.6863 4 37H0ZM541 313H0L4 309H537L541 313ZM0 313V37C0 31.4772 4.47715 27 10 27V31C6.68629 31 4 33.6863 4 37V309L0 313ZM541 27V313L537 309V31L541 27Z" fill="#2E394E" mask="url(#path-4-inside-1_602_18731)"/>
<path d="M2 311H539V334C539 340.627 533.627 346 527 346H14C7.37259 346 2 340.627 2 334V311Z" fill="#243353"/>
<path fill-rule="evenodd" clip-rule="evenodd" d="M2 312H539V311H2V312Z" fill="white" fill-opacity="0.1"/>
<path d="M31 330C31 335.523 26.5228 340 21 340C15.4772 340 11 335.523 11 330C11 324.477 15.4772 320 21 320C26.5228 320 31 324.477 31 330Z" fill="#18253A"/>
<path fill-rule="evenodd" clip-rule="evenodd" d="M21 339C25.9706 339 30 334.971 30 330C30 325.029 25.9706 321 21 321C16.0294 321 12 325.029 12 330C12 334.971 16.0294 339 21 339ZM21 340C26.5228 340 31 335.523 31 330C31 324.477 26.5228 320 21 320C15.4772 320 11 324.477 11 330C11 335.523 15.4772 340 21 340Z" fill="#3B4B68"/>
<g filter="url(#filter2_d_602_18731)">
<path fill-rule="evenodd" clip-rule="evenodd" d="M31.3551 325.835C31.7113 326.256 31.6587 326.886 31.2377 327.243L21.6047 335.404C21.2075 335.741 20.6186 335.716 20.2507 335.348L13.7055 328.795C13.3156 328.404 13.3156 327.772 13.7055 327.381L15.6204 325.464C16.011 325.073 16.6448 325.073 17.0355 325.464L20.5165 328.95C20.8844 329.318 21.4733 329.342 21.8705 329.006L28.1956 323.647C28.6173 323.29 29.249 323.343 29.6058 323.765L31.3551 325.835Z" fill="url(#paint5_linear_602_18731)"/>
</g>
<g filter="url(#filter3_d_602_18731)">
<path fill-rule="evenodd" clip-rule="evenodd" d="M27.8723 323.266C28.505 322.73 29.4525 322.809 29.9876 323.442L31.737 325.512C32.2712 326.144 32.1924 327.09 31.5609 327.625L21.9279 335.786C21.3321 336.291 20.4487 336.254 19.8969 335.701L13.3518 329.148C12.7669 328.562 12.7669 327.614 13.3518 327.028L15.2666 325.111C15.8525 324.524 16.8033 324.524 17.3892 325.111L20.8703 328.596C21.0542 328.78 21.3487 328.793 21.5473 328.624L27.8723 323.266ZM29.2239 324.087C29.0455 323.876 28.7296 323.85 28.5188 324.029L22.1937 329.387C21.5979 329.892 20.7145 329.855 20.1627 329.303L16.6817 325.817C16.4864 325.622 16.1695 325.622 15.9741 325.817L14.0593 327.735C13.8643 327.93 13.8643 328.246 14.0593 328.441L20.6045 334.995C20.7884 335.179 21.0829 335.191 21.2815 335.023L30.9145 326.862C31.125 326.683 31.1513 326.368 30.9732 326.157L29.2239 324.087Z" fill="#3E95F7"/>
</g>
<path d="M48.4778 329.904C48.4778 331.024 48.2631 331.962 47.8338 332.718C47.4138 333.474 46.8024 334.043 45.9998 334.426C45.2064 334.809 44.2451 335 43.1158 335H40.3018V325.004H43.4098C44.4458 325.004 45.3418 325.191 46.0978 325.564C46.8538 325.937 47.4371 326.488 47.8478 327.216C48.2678 327.935 48.4778 328.831 48.4778 329.904ZM46.6018 329.96C46.6018 329.167 46.4804 328.513 46.2378 328C45.9951 327.487 45.6358 327.109 45.1598 326.866C44.6838 326.614 44.1004 326.488 43.4098 326.488H42.0938V333.502H43.1718C44.3291 333.502 45.1878 333.208 45.7478 332.62C46.3171 332.023 46.6018 331.136 46.6018 329.96Z" fill="white"/>
<path d="M57.2184 331.192C57.2184 331.827 57.1344 332.387 56.9664 332.872C56.7984 333.357 56.5557 333.773 56.2384 334.118C55.9304 334.454 55.5477 334.711 55.0904 334.888C54.6424 335.056 54.143 335.14 53.5924 335.14C53.0697 335.14 52.589 335.056 52.1504 334.888C51.7117 334.711 51.329 334.454 51.0024 334.118C50.685 333.773 50.4377 333.357 50.2604 332.872C50.083 332.387 49.9944 331.827 49.9944 331.192C49.9944 330.352 50.139 329.643 50.4284 329.064C50.7177 328.476 51.133 328.033 51.6744 327.734C52.225 327.426 52.8737 327.272 53.6204 327.272C54.3297 327.272 54.9504 327.426 55.4824 327.734C56.0237 328.033 56.4484 328.476 56.7564 329.064C57.0644 329.643 57.2184 330.352 57.2184 331.192ZM51.8004 331.192C51.8004 331.724 51.861 332.181 51.9824 332.564C52.113 332.937 52.309 333.222 52.5704 333.418C52.841 333.614 53.1864 333.712 53.6064 333.712C54.0357 333.712 54.381 333.614 54.6424 333.418C54.913 333.222 55.109 332.937 55.2304 332.564C55.3517 332.181 55.4124 331.724 55.4124 331.192C55.4124 330.651 55.347 330.198 55.2164 329.834C55.095 329.461 54.899 329.181 54.6284 328.994C54.367 328.798 54.0264 328.7 53.6064 328.7C52.9717 328.7 52.5097 328.915 52.2204 329.344C51.9404 329.773 51.8004 330.389 51.8004 331.192Z" fill="white"/>
<path d="M66.7387 327.272C67.588 327.272 68.2507 327.491 68.7267 327.93C69.212 328.369 69.4547 329.078 69.4547 330.058V335H67.6907V330.408C67.6907 329.839 67.5787 329.414 67.3547 329.134C67.1307 328.845 66.776 328.7 66.2907 328.7C65.5813 328.7 65.096 328.924 64.8347 329.372C64.5733 329.811 64.4427 330.45 64.4427 331.29V335H62.6787V327.412H64.0367L64.2887 328.406H64.3867C64.5547 328.145 64.76 327.93 65.0027 327.762C65.2453 327.594 65.516 327.473 65.8147 327.398C66.1133 327.314 66.4213 327.272 66.7387 327.272Z" fill="white"/>
<path d="M78.4371 331.192C78.4371 331.827 78.3531 332.387 78.1851 332.872C78.0171 333.357 77.7744 333.773 77.4571 334.118C77.1491 334.454 76.7664 334.711 76.3091 334.888C75.8611 335.056 75.3618 335.14 74.8111 335.14C74.2884 335.14 73.8078 335.056 73.3691 334.888C72.9304 334.711 72.5478 334.454 72.2211 334.118C71.9038 333.773 71.6564 333.357 71.4791 332.872C71.3018 332.387 71.2131 331.827 71.2131 331.192C71.2131 330.352 71.3578 329.643 71.6471 329.064C71.9364 328.476 72.3518 328.033 72.8931 327.734C73.4438 327.426 74.0924 327.272 74.8391 327.272C75.5484 327.272 76.1691 327.426 76.7011 327.734C77.2424 328.033 77.6671 328.476 77.9751 329.064C78.2831 329.643 78.4371 330.352 78.4371 331.192ZM73.0191 331.192C73.0191 331.724 73.0798 332.181 73.2011 332.564C73.3318 332.937 73.5278 333.222 73.7891 333.418C74.0598 333.614 74.4051 333.712 74.8251 333.712C75.2544 333.712 75.5998 333.614 75.8611 333.418C76.1318 333.222 76.3278 332.937 76.4491 332.564C76.5704 332.181 76.6311 331.724 76.6311 331.192C76.6311 330.651 76.5658 330.198 76.4351 329.834C76.3138 329.461 76.1178 329.181 75.8471 328.994C75.5858 328.798 75.2451 328.7 74.8251 328.7C74.1904 328.7 73.7284 328.915 73.4391 329.344C73.1591 329.773 73.0191 330.389 73.0191 331.192Z" fill="white"/>
<path d="M83.2007 333.726C83.4247 333.726 83.6394 333.707 83.8447 333.67C84.05 333.623 84.2414 333.572 84.4187 333.516V334.832C84.232 334.916 83.9894 334.986 83.6907 335.042C83.392 335.107 83.0794 335.14 82.7527 335.14C82.3234 335.14 81.9314 335.07 81.5767 334.93C81.2314 334.781 80.9514 334.529 80.7367 334.174C80.5314 333.819 80.4287 333.325 80.4287 332.69V328.742H79.4067V327.972L80.5267 327.356L81.0867 325.746H82.1927V327.412H84.3487V328.742H82.1927V332.676C82.1927 333.031 82.286 333.297 82.4727 333.474C82.6594 333.642 82.902 333.726 83.2007 333.726Z" fill="white"/>
<path d="M92.0909 335.14C91.2136 335.14 90.4996 334.813 89.9489 334.16C89.4076 333.497 89.1369 332.517 89.1369 331.22C89.1369 329.923 89.4123 328.943 89.9629 328.28C90.5136 327.608 91.2369 327.272 92.1329 327.272C92.5063 327.272 92.8329 327.323 93.1129 327.426C93.4023 327.519 93.6496 327.65 93.8549 327.818C94.0603 327.986 94.2329 328.173 94.3729 328.378H94.4569C94.4289 328.247 94.4009 328.047 94.3729 327.776C94.3449 327.505 94.3309 327.253 94.3309 327.02V324.36H96.0949V335H94.7229L94.4009 334.006H94.3309C94.1909 334.211 94.0183 334.403 93.8129 334.58C93.6076 334.748 93.3649 334.883 93.0849 334.986C92.8049 335.089 92.4736 335.14 92.0909 335.14ZM92.6229 333.712C93.2763 333.712 93.7383 333.525 94.0089 333.152C94.2796 332.779 94.4149 332.214 94.4149 331.458V331.234C94.4149 330.413 94.2843 329.787 94.0229 329.358C93.7709 328.929 93.2949 328.714 92.5949 328.714C92.0629 328.714 91.6523 328.938 91.3629 329.386C91.0736 329.825 90.9289 330.445 90.9289 331.248C90.9289 332.051 91.0736 332.662 91.3629 333.082C91.6523 333.502 92.0723 333.712 92.6229 333.712Z" fill="white"/>
<path d="M100.113 327.412V335H98.3486V327.412H100.113ZM99.2306 324.486C99.4919 324.486 99.7206 324.556 99.9166 324.696C100.113 324.827 100.211 325.065 100.211 325.41C100.211 325.746 100.113 325.989 99.9166 326.138C99.7206 326.278 99.4919 326.348 99.2306 326.348C98.9599 326.348 98.7266 326.278 98.5306 326.138C98.3439 325.989 98.2506 325.746 98.2506 325.41C98.2506 325.065 98.3439 324.827 98.5306 324.696C98.7266 324.556 98.9599 324.486 99.2306 324.486Z" fill="white"/>
<path d="M107.534 332.802C107.534 333.306 107.413 333.735 107.17 334.09C106.927 334.435 106.568 334.697 106.092 334.874C105.625 335.051 105.051 335.14 104.37 335.14C103.838 335.14 103.381 335.103 102.998 335.028C102.615 334.953 102.251 334.837 101.906 334.678V333.18C102.279 333.357 102.695 333.507 103.152 333.628C103.609 333.749 104.034 333.81 104.426 333.81C104.911 333.81 105.261 333.735 105.476 333.586C105.691 333.437 105.798 333.236 105.798 332.984C105.798 332.835 105.756 332.699 105.672 332.578C105.588 332.457 105.425 332.331 105.182 332.2C104.939 332.06 104.571 331.887 104.076 331.682C103.591 331.486 103.185 331.29 102.858 331.094C102.541 330.898 102.298 330.665 102.13 330.394C101.971 330.114 101.892 329.764 101.892 329.344C101.892 328.663 102.163 328.149 102.704 327.804C103.245 327.449 103.959 327.272 104.846 327.272C105.313 327.272 105.751 327.319 106.162 327.412C106.582 327.496 107.002 327.636 107.422 327.832L106.862 329.134C106.629 329.031 106.395 328.943 106.162 328.868C105.938 328.784 105.709 328.719 105.476 328.672C105.252 328.625 105.023 328.602 104.79 328.602C104.407 328.602 104.118 328.663 103.922 328.784C103.726 328.896 103.628 329.055 103.628 329.26C103.628 329.419 103.675 329.559 103.768 329.68C103.871 329.792 104.043 329.909 104.286 330.03C104.538 330.142 104.893 330.291 105.35 330.478C105.807 330.655 106.195 330.842 106.512 331.038C106.839 331.225 107.091 331.458 107.268 331.738C107.445 332.018 107.534 332.373 107.534 332.802Z" fill="white"/>
<path d="M113.221 327.272C114.108 327.272 114.822 327.603 115.363 328.266C115.905 328.919 116.175 329.895 116.175 331.192C116.175 332.051 116.049 332.774 115.797 333.362C115.545 333.95 115.195 334.393 114.747 334.692C114.299 334.991 113.777 335.14 113.179 335.14C112.815 335.14 112.493 335.093 112.213 335C111.933 334.897 111.695 334.771 111.499 334.622C111.303 334.463 111.135 334.295 110.995 334.118H110.883C110.921 334.286 110.949 334.477 110.967 334.692C110.986 334.897 110.995 335.093 110.995 335.28V338.36H109.231V327.412H110.659L110.911 328.42H110.995C111.135 328.205 111.303 328.014 111.499 327.846C111.705 327.669 111.947 327.529 112.227 327.426C112.517 327.323 112.848 327.272 113.221 327.272ZM112.717 328.7C112.307 328.7 111.975 328.784 111.723 328.952C111.471 329.111 111.289 329.358 111.177 329.694C111.065 330.03 111.005 330.45 110.995 330.954V331.178C110.995 331.719 111.047 332.177 111.149 332.55C111.261 332.923 111.443 333.208 111.695 333.404C111.957 333.6 112.307 333.698 112.745 333.698C113.119 333.698 113.422 333.595 113.655 333.39C113.898 333.185 114.075 332.895 114.187 332.522C114.309 332.139 114.369 331.687 114.369 331.164C114.369 330.38 114.234 329.773 113.963 329.344C113.702 328.915 113.287 328.7 112.717 328.7Z" fill="white"/>
<path d="M119.759 335H117.995V324.36H119.759V335Z" fill="white"/>
<path d="M125.039 327.272C126.019 327.272 126.761 327.487 127.265 327.916C127.778 328.336 128.035 328.999 128.035 329.904V335H126.789L126.439 333.95H126.383C126.168 334.221 125.944 334.449 125.711 334.636C125.487 334.813 125.225 334.939 124.927 335.014C124.637 335.098 124.283 335.14 123.863 335.14C123.415 335.14 123.009 335.056 122.645 334.888C122.29 334.72 122.01 334.463 121.805 334.118C121.599 333.763 121.497 333.32 121.497 332.788C121.497 332.004 121.781 331.416 122.351 331.024C122.929 330.623 123.802 330.403 124.969 330.366L126.285 330.324V329.946C126.285 329.461 126.168 329.115 125.935 328.91C125.701 328.705 125.375 328.602 124.955 328.602C124.572 328.602 124.203 328.658 123.849 328.77C123.494 328.882 123.149 329.013 122.813 329.162L122.253 327.93C122.626 327.734 123.051 327.575 123.527 327.454C124.012 327.333 124.516 327.272 125.039 327.272ZM125.361 331.444C124.586 331.472 124.049 331.607 123.751 331.85C123.452 332.083 123.303 332.401 123.303 332.802C123.303 333.157 123.41 333.413 123.625 333.572C123.839 333.731 124.115 333.81 124.451 333.81C124.964 333.81 125.398 333.665 125.753 333.376C126.107 333.077 126.285 332.639 126.285 332.06V331.416L125.361 331.444Z" fill="white"/>
<path d="M129.111 327.412H131.029L132.541 331.696C132.606 331.883 132.662 332.065 132.709 332.242C132.765 332.41 132.812 332.583 132.849 332.76C132.886 332.937 132.914 333.115 132.933 333.292H132.989C133.026 333.059 133.082 332.802 133.157 332.522C133.241 332.242 133.325 331.967 133.409 331.696L134.865 327.412H136.769L133.535 336.008C133.348 336.503 133.11 336.927 132.821 337.282C132.541 337.637 132.205 337.903 131.813 338.08C131.43 338.267 130.996 338.36 130.511 338.36C130.287 338.36 130.086 338.346 129.909 338.318C129.741 338.299 129.592 338.276 129.461 338.248V336.848C129.564 336.867 129.685 336.885 129.825 336.904C129.974 336.923 130.128 336.932 130.287 336.932C130.576 336.932 130.824 336.871 131.029 336.75C131.244 336.638 131.421 336.479 131.561 336.274C131.71 336.069 131.832 335.84 131.925 335.588L132.149 334.972L129.111 327.412Z" fill="white"/>
<path d="M144.478 333.726C144.702 333.726 144.917 333.707 145.122 333.67C145.327 333.623 145.519 333.572 145.696 333.516V334.832C145.509 334.916 145.267 334.986 144.968 335.042C144.669 335.107 144.357 335.14 144.03 335.14C143.601 335.14 143.209 335.07 142.854 334.93C142.509 334.781 142.229 334.529 142.014 334.174C141.809 333.819 141.706 333.325 141.706 332.69V328.742H140.684V327.972L141.804 327.356L142.364 325.746H143.47V327.412H145.626V328.742H143.47V332.676C143.47 333.031 143.563 333.297 143.75 333.474C143.937 333.642 144.179 333.726 144.478 333.726Z" fill="white"/>
<path d="M148.99 326.894C148.99 327.193 148.976 327.487 148.948 327.776C148.929 328.056 148.91 328.266 148.892 328.406H149.004C149.162 328.145 149.358 327.935 149.592 327.776C149.825 327.608 150.082 327.482 150.362 327.398C150.651 327.314 150.95 327.272 151.258 327.272C151.827 327.272 152.317 327.37 152.728 327.566C153.138 327.762 153.451 328.065 153.666 328.476C153.89 328.877 154.002 329.405 154.002 330.058V335H152.238V330.408C152.238 329.829 152.126 329.4 151.902 329.12C151.678 328.84 151.323 328.7 150.838 328.7C150.371 328.7 150.002 328.803 149.732 329.008C149.461 329.204 149.27 329.498 149.158 329.89C149.046 330.273 148.99 330.744 148.99 331.304V335H147.226V324.36H148.99V326.894Z" fill="white"/>
<path d="M157.972 327.412V335H156.208V327.412H157.972ZM157.09 324.486C157.351 324.486 157.58 324.556 157.776 324.696C157.972 324.827 158.07 325.065 158.07 325.41C158.07 325.746 157.972 325.989 157.776 326.138C157.58 326.278 157.351 326.348 157.09 326.348C156.819 326.348 156.586 326.278 156.39 326.138C156.203 325.989 156.11 325.746 156.11 325.41C156.11 325.065 156.203 324.827 156.39 324.696C156.586 324.556 156.819 324.486 157.09 324.486Z" fill="white"/>
<path d="M165.394 332.802C165.394 333.306 165.272 333.735 165.03 334.09C164.787 334.435 164.428 334.697 163.952 334.874C163.485 335.051 162.911 335.14 162.23 335.14C161.698 335.14 161.24 335.103 160.858 335.028C160.475 334.953 160.111 334.837 159.766 334.678V333.18C160.139 333.357 160.554 333.507 161.012 333.628C161.469 333.749 161.894 333.81 162.286 333.81C162.771 333.81 163.121 333.735 163.336 333.586C163.55 333.437 163.658 333.236 163.658 332.984C163.658 332.835 163.616 332.699 163.532 332.578C163.448 332.457 163.284 332.331 163.042 332.2C162.799 332.06 162.43 331.887 161.936 331.682C161.45 331.486 161.044 331.29 160.718 331.094C160.4 330.898 160.158 330.665 159.99 330.394C159.831 330.114 159.752 329.764 159.752 329.344C159.752 328.663 160.022 328.149 160.564 327.804C161.105 327.449 161.819 327.272 162.706 327.272C163.172 327.272 163.611 327.319 164.022 327.412C164.442 327.496 164.862 327.636 165.282 327.832L164.722 329.134C164.488 329.031 164.255 328.943 164.022 328.868C163.798 328.784 163.569 328.719 163.336 328.672C163.112 328.625 162.883 328.602 162.65 328.602C162.267 328.602 161.978 328.663 161.782 328.784C161.586 328.896 161.488 329.055 161.488 329.26C161.488 329.419 161.534 329.559 161.628 329.68C161.73 329.792 161.903 329.909 162.146 330.03C162.398 330.142 162.752 330.291 163.21 330.478C163.667 330.655 164.054 330.842 164.372 331.038C164.698 331.225 164.95 331.458 165.128 331.738C165.305 332.018 165.394 332.373 165.394 332.802Z" fill="white"/>
<path d="M173.752 327.272C174.732 327.272 175.474 327.487 175.978 327.916C176.491 328.336 176.748 328.999 176.748 329.904V335H175.502L175.152 333.95H175.096C174.881 334.221 174.657 334.449 174.424 334.636C174.2 334.813 173.938 334.939 173.64 335.014C173.35 335.098 172.995 335.14 172.576 335.14C172.128 335.14 171.722 335.056 171.358 334.888C171.003 334.72 170.723 334.463 170.518 334.118C170.312 333.763 170.21 333.32 170.21 332.788C170.21 332.004 170.494 331.416 171.064 331.024C171.642 330.623 172.515 330.403 173.682 330.366L174.998 330.324V329.946C174.998 329.461 174.881 329.115 174.648 328.91C174.414 328.705 174.088 328.602 173.668 328.602C173.285 328.602 172.916 328.658 172.562 328.77C172.207 328.882 171.862 329.013 171.526 329.162L170.965 327.93C171.339 327.734 171.764 327.575 172.24 327.454C172.725 327.333 173.229 327.272 173.752 327.272ZM174.074 331.444C173.299 331.472 172.762 331.607 172.464 331.85C172.165 332.083 172.016 332.401 172.016 332.802C172.016 333.157 172.123 333.413 172.338 333.572C172.552 333.731 172.828 333.81 173.164 333.81C173.677 333.81 174.111 333.665 174.465 333.376C174.82 333.077 174.998 332.639 174.998 332.06V331.416L174.074 331.444Z" fill="white"/>
<path d="M181.506 327.272C181.982 327.272 182.411 327.365 182.794 327.552C183.177 327.739 183.499 328.019 183.76 328.392H183.83L183.998 327.412H185.468V335.056C185.468 335.775 185.333 336.377 185.062 336.862C184.791 337.357 184.385 337.73 183.844 337.982C183.303 338.234 182.626 338.36 181.814 338.36C181.273 338.36 180.773 338.323 180.316 338.248C179.859 338.183 179.425 338.066 179.014 337.898V336.442C179.303 336.563 179.602 336.666 179.91 336.75C180.227 336.843 180.554 336.913 180.89 336.96C181.226 337.007 181.571 337.03 181.926 337.03C182.505 337.03 182.943 336.867 183.242 336.54C183.55 336.213 183.704 335.747 183.704 335.14V334.944C183.704 334.804 183.709 334.641 183.718 334.454C183.737 334.267 183.751 334.118 183.76 334.006H183.704C183.443 334.398 183.125 334.687 182.752 334.874C182.379 335.051 181.949 335.14 181.464 335.14C180.54 335.14 179.817 334.795 179.294 334.104C178.771 333.413 178.51 332.452 178.51 331.22C178.51 330.389 178.627 329.68 178.86 329.092C179.103 328.504 179.448 328.056 179.896 327.748C180.344 327.431 180.881 327.272 181.506 327.272ZM181.968 328.714C181.613 328.714 181.31 328.812 181.058 329.008C180.815 329.195 180.629 329.475 180.498 329.848C180.377 330.221 180.316 330.688 180.316 331.248C180.316 332.069 180.456 332.69 180.736 333.11C181.016 333.53 181.436 333.74 181.996 333.74C182.313 333.74 182.584 333.703 182.808 333.628C183.032 333.544 183.214 333.413 183.354 333.236C183.503 333.049 183.615 332.816 183.69 332.536C183.765 332.247 183.802 331.901 183.802 331.5V331.234C183.802 330.627 183.737 330.142 183.606 329.778C183.475 329.405 183.275 329.134 183.004 328.966C182.743 328.798 182.397 328.714 181.968 328.714Z" fill="white"/>
<path d="M190.746 327.272C191.726 327.272 192.468 327.487 192.972 327.916C193.485 328.336 193.742 328.999 193.742 329.904V335H192.496L192.146 333.95H192.09C191.875 334.221 191.651 334.449 191.418 334.636C191.194 334.813 190.932 334.939 190.634 335.014C190.344 335.098 189.99 335.14 189.57 335.14C189.122 335.14 188.716 335.056 188.352 334.888C187.997 334.72 187.717 334.463 187.512 334.118C187.306 333.763 187.204 333.32 187.204 332.788C187.204 332.004 187.488 331.416 188.058 331.024C188.636 330.623 189.509 330.403 190.676 330.366L191.992 330.324V329.946C191.992 329.461 191.875 329.115 191.642 328.91C191.408 328.705 191.082 328.602 190.662 328.602C190.279 328.602 189.91 328.658 189.556 328.77C189.201 328.882 188.856 329.013 188.52 329.162L187.96 327.93C188.333 327.734 188.758 327.575 189.234 327.454C189.719 327.333 190.223 327.272 190.746 327.272ZM191.068 331.444C190.293 331.472 189.756 331.607 189.458 331.85C189.159 332.083 189.01 332.401 189.01 332.802C189.01 333.157 189.117 333.413 189.332 333.572C189.546 333.731 189.822 333.81 190.158 333.81C190.671 333.81 191.105 333.665 191.46 333.376C191.814 333.077 191.992 332.639 191.992 332.06V331.416L191.068 331.444Z" fill="white"/>
<path d="M197.716 327.412V335H195.952V327.412H197.716ZM196.834 324.486C197.095 324.486 197.324 324.556 197.52 324.696C197.716 324.827 197.814 325.065 197.814 325.41C197.814 325.746 197.716 325.989 197.52 326.138C197.324 326.278 197.095 326.348 196.834 326.348C196.563 326.348 196.33 326.278 196.134 326.138C195.947 325.989 195.854 325.746 195.854 325.41C195.854 325.065 195.947 324.827 196.134 324.696C196.33 324.556 196.563 324.486 196.834 324.486Z" fill="white"/>
<path d="M204.032 327.272C204.881 327.272 205.544 327.491 206.02 327.93C206.505 328.369 206.748 329.078 206.748 330.058V335H204.984V330.408C204.984 329.839 204.872 329.414 204.648 329.134C204.424 328.845 204.069 328.7 203.584 328.7C202.874 328.7 202.389 328.924 202.128 329.372C201.866 329.811 201.736 330.45 201.736 331.29V335H199.972V327.412H201.33L201.582 328.406H201.68C201.848 328.145 202.053 327.93 202.296 327.762C202.538 327.594 202.809 327.473 203.108 327.398C203.406 327.314 203.714 327.272 204.032 327.272Z" fill="white"/>
<path d="M216.525 328.742H214.691V335H212.927V328.742H211.709V327.902L212.927 327.398V326.88C212.927 326.227 213.029 325.713 213.235 325.34C213.44 324.967 213.739 324.701 214.131 324.542C214.523 324.374 214.985 324.29 215.517 324.29C215.89 324.29 216.226 324.323 216.525 324.388C216.823 324.444 217.071 324.509 217.267 324.584L216.819 325.9C216.66 325.853 216.483 325.811 216.287 325.774C216.1 325.727 215.895 325.704 215.671 325.704C215.335 325.704 215.087 325.811 214.929 326.026C214.77 326.241 214.691 326.539 214.691 326.922V327.412H216.525V328.742Z" fill="white"/>
<path d="M224.562 331.192C224.562 331.827 224.478 332.387 224.31 332.872C224.142 333.357 223.899 333.773 223.582 334.118C223.274 334.454 222.891 334.711 222.434 334.888C221.986 335.056 221.487 335.14 220.936 335.14C220.413 335.14 219.933 335.056 219.494 334.888C219.055 334.711 218.673 334.454 218.346 334.118C218.029 333.773 217.781 333.357 217.604 332.872C217.427 332.387 217.338 331.827 217.338 331.192C217.338 330.352 217.483 329.643 217.772 329.064C218.061 328.476 218.477 328.033 219.018 327.734C219.569 327.426 220.217 327.272 220.964 327.272C221.673 327.272 222.294 327.426 222.826 327.734C223.367 328.033 223.792 328.476 224.1 329.064C224.408 329.643 224.562 330.352 224.562 331.192ZM219.144 331.192C219.144 331.724 219.205 332.181 219.326 332.564C219.457 332.937 219.653 333.222 219.914 333.418C220.185 333.614 220.53 333.712 220.95 333.712C221.379 333.712 221.725 333.614 221.986 333.418C222.257 333.222 222.453 332.937 222.574 332.564C222.695 332.181 222.756 331.724 222.756 331.192C222.756 330.651 222.691 330.198 222.56 329.834C222.439 329.461 222.243 329.181 221.972 328.994C221.711 328.798 221.37 328.7 220.95 328.7C220.315 328.7 219.853 328.915 219.564 329.344C219.284 329.773 219.144 330.389 219.144 331.192Z" fill="white"/>
<path d="M230.362 327.272C230.474 327.272 230.604 327.277 230.754 327.286C230.903 327.295 231.029 327.314 231.132 327.342L230.978 328.98C230.894 328.961 230.782 328.947 230.642 328.938C230.511 328.919 230.394 328.91 230.292 328.91C230.012 328.91 229.741 328.957 229.48 329.05C229.228 329.134 228.999 329.265 228.794 329.442C228.598 329.61 228.439 329.829 228.318 330.1C228.206 330.371 228.15 330.693 228.15 331.066V335H226.386V327.412H227.744L227.996 328.728H228.08C228.229 328.457 228.416 328.215 228.64 328C228.864 327.776 229.12 327.599 229.41 327.468C229.708 327.337 230.026 327.272 230.362 327.272Z" fill="white"/>
<path d="M239.115 333.726C239.339 333.726 239.553 333.707 239.759 333.67C239.964 333.623 240.155 333.572 240.333 333.516V334.832C240.146 334.916 239.903 334.986 239.605 335.042C239.306 335.107 238.993 335.14 238.667 335.14C238.237 335.14 237.845 335.07 237.491 334.93C237.145 334.781 236.865 334.529 236.651 334.174C236.445 333.819 236.343 333.325 236.343 332.69V328.742H235.321V327.972L236.441 327.356L237.001 325.746H238.107V327.412H240.263V328.742H238.107V332.676C238.107 333.031 238.2 333.297 238.387 333.474C238.573 333.642 238.816 333.726 239.115 333.726Z" fill="white"/>
<path d="M243.626 326.894C243.626 327.193 243.612 327.487 243.584 327.776C243.566 328.056 243.547 328.266 243.528 328.406H243.64C243.799 328.145 243.995 327.935 244.228 327.776C244.462 327.608 244.718 327.482 244.998 327.398C245.288 327.314 245.586 327.272 245.894 327.272C246.464 327.272 246.954 327.37 247.364 327.566C247.775 327.762 248.088 328.065 248.302 328.476C248.526 328.877 248.638 329.405 248.638 330.058V335H246.874V330.408C246.874 329.829 246.762 329.4 246.538 329.12C246.314 328.84 245.96 328.7 245.474 328.7C245.008 328.7 244.639 328.803 244.368 329.008C244.098 329.204 243.906 329.498 243.794 329.89C243.682 330.273 243.626 330.744 243.626 331.304V335H241.862V324.36H243.626V326.894Z" fill="white"/>
<path d="M253.897 327.272C254.578 327.272 255.161 327.412 255.647 327.692C256.141 327.963 256.524 328.355 256.795 328.868C257.065 329.372 257.201 329.988 257.201 330.716V331.612H252.189C252.207 332.303 252.399 332.839 252.763 333.222C253.127 333.595 253.631 333.782 254.275 333.782C254.769 333.782 255.208 333.735 255.591 333.642C255.983 333.539 256.384 333.395 256.795 333.208V334.622C256.421 334.799 256.034 334.93 255.633 335.014C255.231 335.098 254.751 335.14 254.191 335.14C253.453 335.14 252.795 335 252.217 334.72C251.647 334.431 251.199 333.997 250.873 333.418C250.555 332.839 250.397 332.121 250.397 331.262C250.397 330.394 250.541 329.666 250.831 329.078C251.129 328.481 251.54 328.033 252.063 327.734C252.585 327.426 253.197 327.272 253.897 327.272ZM253.897 328.574C253.43 328.574 253.047 328.728 252.749 329.036C252.459 329.335 252.287 329.783 252.231 330.38H255.493C255.493 330.025 255.432 329.713 255.311 329.442C255.199 329.171 255.026 328.961 254.793 328.812C254.559 328.653 254.261 328.574 253.897 328.574Z" fill="white"/>
<path d="M266.592 327.272C266.704 327.272 266.835 327.277 266.984 327.286C267.134 327.295 267.26 327.314 267.362 327.342L267.208 328.98C267.124 328.961 267.012 328.947 266.872 328.938C266.742 328.919 266.625 328.91 266.522 328.91C266.242 328.91 265.972 328.957 265.71 329.05C265.458 329.134 265.23 329.265 265.024 329.442C264.828 329.61 264.67 329.829 264.548 330.1C264.436 330.371 264.38 330.693 264.38 331.066V335H262.616V327.412H263.974L264.226 328.728H264.31C264.46 328.457 264.646 328.215 264.87 328C265.094 327.776 265.351 327.599 265.64 327.468C265.939 327.337 266.256 327.272 266.592 327.272Z" fill="white"/>
<path d="M271.547 327.272C272.228 327.272 272.812 327.412 273.297 327.692C273.792 327.963 274.174 328.355 274.445 328.868C274.716 329.372 274.851 329.988 274.851 330.716V331.612H269.839C269.858 332.303 270.049 332.839 270.413 333.222C270.777 333.595 271.281 333.782 271.925 333.782C272.42 333.782 272.858 333.735 273.241 333.642C273.633 333.539 274.034 333.395 274.445 333.208V334.622C274.072 334.799 273.684 334.93 273.283 335.014C272.882 335.098 272.401 335.14 271.841 335.14C271.104 335.14 270.446 335 269.867 334.72C269.298 334.431 268.85 333.997 268.523 333.418C268.206 332.839 268.047 332.121 268.047 331.262C268.047 330.394 268.192 329.666 268.481 329.078C268.78 328.481 269.19 328.033 269.713 327.734C270.236 327.426 270.847 327.272 271.547 327.272ZM271.547 328.574C271.08 328.574 270.698 328.728 270.399 329.036C270.11 329.335 269.937 329.783 269.881 330.38H273.143C273.143 330.025 273.082 329.713 272.961 329.442C272.849 329.171 272.676 328.961 272.443 328.812C272.21 328.653 271.911 328.574 271.547 328.574Z" fill="white"/>
<path d="M281.796 332.802C281.796 333.306 281.675 333.735 281.432 334.09C281.189 334.435 280.83 334.697 280.354 334.874C279.887 335.051 279.313 335.14 278.632 335.14C278.1 335.14 277.643 335.103 277.26 335.028C276.877 334.953 276.513 334.837 276.168 334.678V333.18C276.541 333.357 276.957 333.507 277.414 333.628C277.871 333.749 278.296 333.81 278.688 333.81C279.173 333.81 279.523 333.735 279.738 333.586C279.953 333.437 280.06 333.236 280.06 332.984C280.06 332.835 280.018 332.699 279.934 332.578C279.85 332.457 279.687 332.331 279.444 332.2C279.201 332.06 278.833 331.887 278.338 331.682C277.853 331.486 277.447 331.29 277.12 331.094C276.803 330.898 276.56 330.665 276.392 330.394C276.233 330.114 276.154 329.764 276.154 329.344C276.154 328.663 276.425 328.149 276.966 327.804C277.507 327.449 278.221 327.272 279.108 327.272C279.575 327.272 280.013 327.319 280.424 327.412C280.844 327.496 281.264 327.636 281.684 327.832L281.124 329.134C280.891 329.031 280.657 328.943 280.424 328.868C280.2 328.784 279.971 328.719 279.738 328.672C279.514 328.625 279.285 328.602 279.052 328.602C278.669 328.602 278.38 328.663 278.184 328.784C277.988 328.896 277.89 329.055 277.89 329.26C277.89 329.419 277.937 329.559 278.03 329.68C278.133 329.792 278.305 329.909 278.548 330.03C278.8 330.142 279.155 330.291 279.612 330.478C280.069 330.655 280.457 330.842 280.774 331.038C281.101 331.225 281.353 331.458 281.53 331.738C281.707 332.018 281.796 332.373 281.796 332.802Z" fill="white"/>
<path d="M286.433 333.726C286.657 333.726 286.872 333.707 287.077 333.67C287.282 333.623 287.474 333.572 287.651 333.516V334.832C287.464 334.916 287.222 334.986 286.923 335.042C286.624 335.107 286.312 335.14 285.985 335.14C285.556 335.14 285.164 335.07 284.809 334.93C284.464 334.781 284.184 334.529 283.969 334.174C283.764 333.819 283.661 333.325 283.661 332.69V328.742H282.639V327.972L283.759 327.356L284.319 325.746H285.425V327.412H287.581V328.742H285.425V332.676C285.425 333.031 285.518 333.297 285.705 333.474C285.892 333.642 286.134 333.726 286.433 333.726Z" fill="white"/>
<path d="M299.593 331.192C299.593 331.827 299.509 332.387 299.341 332.872C299.173 333.357 298.931 333.773 298.613 334.118C298.305 334.454 297.923 334.711 297.465 334.888C297.017 335.056 296.518 335.14 295.967 335.14C295.445 335.14 294.964 335.056 294.525 334.888C294.087 334.711 293.704 334.454 293.377 334.118C293.06 333.773 292.813 333.357 292.635 332.872C292.458 332.387 292.369 331.827 292.369 331.192C292.369 330.352 292.514 329.643 292.803 329.064C293.093 328.476 293.508 328.033 294.049 327.734C294.6 327.426 295.249 327.272 295.995 327.272C296.705 327.272 297.325 327.426 297.857 327.734C298.399 328.033 298.823 328.476 299.131 329.064C299.439 329.643 299.593 330.352 299.593 331.192ZM294.175 331.192C294.175 331.724 294.236 332.181 294.357 332.564C294.488 332.937 294.684 333.222 294.945 333.418C295.216 333.614 295.561 333.712 295.981 333.712C296.411 333.712 296.756 333.614 297.017 333.418C297.288 333.222 297.484 332.937 297.605 332.564C297.727 332.181 297.787 331.724 297.787 331.192C297.787 330.651 297.722 330.198 297.591 329.834C297.47 329.461 297.274 329.181 297.003 328.994C296.742 328.798 296.401 328.7 295.981 328.7C295.347 328.7 294.885 328.915 294.595 329.344C294.315 329.773 294.175 330.389 294.175 331.192Z" fill="white"/>
<path d="M305.351 328.742H303.517V335H301.753V328.742H300.535V327.902L301.753 327.398V326.88C301.753 326.227 301.856 325.713 302.061 325.34C302.266 324.967 302.565 324.701 302.957 324.542C303.349 324.374 303.811 324.29 304.343 324.29C304.716 324.29 305.052 324.323 305.351 324.388C305.65 324.444 305.897 324.509 306.093 324.584L305.645 325.9C305.486 325.853 305.309 325.811 305.113 325.774C304.926 325.727 304.721 325.704 304.497 325.704C304.161 325.704 303.914 325.811 303.755 326.026C303.596 326.241 303.517 326.539 303.517 326.922V327.412H305.351V328.742Z" fill="white"/>
<path d="M313.189 333.726C313.413 333.726 313.628 333.707 313.833 333.67C314.038 333.623 314.23 333.572 314.407 333.516V334.832C314.22 334.916 313.978 334.986 313.679 335.042C313.38 335.107 313.068 335.14 312.741 335.14C312.312 335.14 311.92 335.07 311.565 334.93C311.22 334.781 310.94 334.529 310.725 334.174C310.52 333.819 310.417 333.325 310.417 332.69V328.742H309.395V327.972L310.515 327.356L311.075 325.746H312.181V327.412H314.337V328.742H312.181V332.676C312.181 333.031 312.274 333.297 312.461 333.474C312.648 333.642 312.89 333.726 313.189 333.726Z" fill="white"/>
<path d="M317.701 326.894C317.701 327.193 317.686 327.487 317.658 327.776C317.64 328.056 317.621 328.266 317.602 328.406H317.714C317.873 328.145 318.069 327.935 318.302 327.776C318.536 327.608 318.792 327.482 319.072 327.398C319.362 327.314 319.66 327.272 319.968 327.272C320.538 327.272 321.028 327.37 321.438 327.566C321.849 327.762 322.162 328.065 322.376 328.476C322.6 328.877 322.712 329.405 322.712 330.058V335H320.948V330.408C320.948 329.829 320.836 329.4 320.612 329.12C320.388 328.84 320.034 328.7 319.548 328.7C319.082 328.7 318.713 328.803 318.443 329.008C318.172 329.204 317.98 329.498 317.868 329.89C317.757 330.273 317.701 330.744 317.701 331.304V335H315.936V324.36H317.701V326.894Z" fill="white"/>
<path d="M327.971 327.272C328.652 327.272 329.236 327.412 329.721 327.692C330.216 327.963 330.598 328.355 330.869 328.868C331.14 329.372 331.275 329.988 331.275 330.716V331.612H326.263C326.282 332.303 326.473 332.839 326.837 333.222C327.201 333.595 327.705 333.782 328.349 333.782C328.844 333.782 329.282 333.735 329.665 333.642C330.057 333.539 330.458 333.395 330.869 333.208V334.622C330.496 334.799 330.108 334.93 329.707 335.014C329.306 335.098 328.825 335.14 328.265 335.14C327.528 335.14 326.87 335 326.291 334.72C325.722 334.431 325.274 333.997 324.947 333.418C324.63 332.839 324.471 332.121 324.471 331.262C324.471 330.394 324.616 329.666 324.905 329.078C325.204 328.481 325.614 328.033 326.137 327.734C326.66 327.426 327.271 327.272 327.971 327.272ZM327.971 328.574C327.504 328.574 327.122 328.728 326.823 329.036C326.534 329.335 326.361 329.783 326.305 330.38H329.567C329.567 330.025 329.506 329.713 329.385 329.442C329.273 329.171 329.1 328.961 328.867 328.812C328.634 328.653 328.335 328.574 327.971 328.574Z" fill="white"/>
<path d="M339.196 335.14C338.319 335.14 337.605 334.813 337.054 334.16C336.513 333.497 336.242 332.517 336.242 331.22C336.242 329.923 336.518 328.943 337.068 328.28C337.619 327.608 338.342 327.272 339.238 327.272C339.612 327.272 339.938 327.323 340.218 327.426C340.508 327.519 340.755 327.65 340.96 327.818C341.166 327.986 341.338 328.173 341.478 328.378H341.562C341.534 328.247 341.506 328.047 341.478 327.776C341.45 327.505 341.436 327.253 341.436 327.02V324.36H343.2V335H341.828L341.506 334.006H341.436C341.296 334.211 341.124 334.403 340.918 334.58C340.713 334.748 340.47 334.883 340.19 334.986C339.91 335.089 339.579 335.14 339.196 335.14ZM339.728 333.712C340.382 333.712 340.844 333.525 341.114 333.152C341.385 332.779 341.52 332.214 341.52 331.458V331.234C341.52 330.413 341.39 329.787 341.128 329.358C340.876 328.929 340.4 328.714 339.7 328.714C339.168 328.714 338.758 328.938 338.468 329.386C338.179 329.825 338.034 330.445 338.034 331.248C338.034 332.051 338.179 332.662 338.468 333.082C338.758 333.502 339.178 333.712 339.728 333.712Z" fill="white"/>
<path d="M348.478 327.272C349.458 327.272 350.2 327.487 350.704 327.916C351.217 328.336 351.474 328.999 351.474 329.904V335H350.228L349.878 333.95H349.822C349.607 334.221 349.383 334.449 349.15 334.636C348.926 334.813 348.665 334.939 348.366 335.014C348.077 335.098 347.722 335.14 347.302 335.14C346.854 335.14 346.448 335.056 346.084 334.888C345.729 334.72 345.449 334.463 345.244 334.118C345.039 333.763 344.936 333.32 344.936 332.788C344.936 332.004 345.221 331.416 345.79 331.024C346.369 330.623 347.241 330.403 348.408 330.366L349.724 330.324V329.946C349.724 329.461 349.607 329.115 349.374 328.91C349.141 328.705 348.814 328.602 348.394 328.602C348.011 328.602 347.643 328.658 347.288 328.77C346.933 328.882 346.588 329.013 346.252 329.162L345.692 327.93C346.065 327.734 346.49 327.575 346.966 327.454C347.451 327.333 347.955 327.272 348.478 327.272ZM348.8 331.444C348.025 331.472 347.489 331.607 347.19 331.85C346.891 332.083 346.742 332.401 346.742 332.802C346.742 333.157 346.849 333.413 347.064 333.572C347.279 333.731 347.554 333.81 347.89 333.81C348.403 333.81 348.837 333.665 349.192 333.376C349.547 333.077 349.724 332.639 349.724 332.06V331.416L348.8 331.444Z" fill="white"/>
<path d="M352.551 327.412H354.469L355.981 331.696C356.046 331.883 356.102 332.065 356.149 332.242C356.205 332.41 356.251 332.583 356.289 332.76C356.326 332.937 356.354 333.115 356.373 333.292H356.429C356.466 333.059 356.522 332.802 356.597 332.522C356.681 332.242 356.765 331.967 356.849 331.696L358.305 327.412H360.209L356.975 336.008C356.788 336.503 356.55 336.927 356.261 337.282C355.981 337.637 355.645 337.903 355.253 338.08C354.87 338.267 354.436 338.36 353.951 338.36C353.727 338.36 353.526 338.346 353.349 338.318C353.181 338.299 353.031 338.276 352.901 338.248V336.848C353.003 336.867 353.125 336.885 353.265 336.904C353.414 336.923 353.568 336.932 353.727 336.932C354.016 336.932 354.263 336.871 354.469 336.75C354.683 336.638 354.861 336.479 355.001 336.274C355.15 336.069 355.271 335.84 355.365 335.588L355.589 334.972L352.551 327.412Z" fill="white"/>
<g filter="url(#filter4_ii_602_18731)">
<path d="M527.52 1H492.926C492.714 1 492.608 1 492.585 1.00111C491.693 1.04313 491.291 2.00975 491.891 2.67142C491.907 2.68887 491.995 2.77824 492.173 2.95697C494.075 4.86659 495.236 6.64832 496.667 8.68493C498.571 11.3973 499.524 13.6575 500.476 17.274C501.429 20.8904 501.905 23.6027 506.19 28.5753C509.67 32.6121 514.286 34 519.048 34H537.92C537.994 34 538.031 34 538.063 33.999C539.118 33.9659 539.966 33.1181 539.999 32.0628C540 32.0314 540 31.9943 540 31.92V13.48C540 13.0343 540 12.8115 539.994 12.6231C539.795 6.29135 534.709 1.2049 528.377 1.00592C528.189 1 527.966 1 527.52 1Z" fill="url(#paint6_linear_602_18731)"/>
</g>
<path d="M527.52 1H492.926C492.714 1 492.608 1 492.585 1.00111C491.693 1.04313 491.291 2.00975 491.891 2.67142C491.907 2.68887 491.995 2.77824 492.173 2.95697C494.075 4.86659 495.236 6.64832 496.667 8.68493C498.571 11.3973 499.524 13.6575 500.476 17.274C501.429 20.8904 501.905 23.6027 506.19 28.5753C509.67 32.6121 514.286 34 519.048 34H537.92C537.994 34 538.031 34 538.063 33.999C539.118 33.9659 539.966 33.1181 539.999 32.0628C540 32.0314 540 31.9943 540 31.92V13.48C540 13.0343 540 12.8115 539.994 12.6231C539.795 6.29135 534.709 1.2049 528.377 1.00592C528.189 1 527.966 1 527.52 1Z" stroke="#931E13"/>
<g filter="url(#filter5_f_602_18731)">
<circle cx="533" cy="8.5" r="5" fill="#FCB196"/>
</g>
<g filter="url(#filter6_i_602_18731)">
<path fill-rule="evenodd" clip-rule="evenodd" d="M528.888 8.29595C527.992 7.40052 526.541 7.40052 525.645 8.29595L521.592 12.3493L517.538 8.29595C516.643 7.40052 515.191 7.40052 514.296 8.29595C513.4 9.19138 513.4 10.6432 514.296 11.5386L518.349 15.5919L514.296 19.6452C513.4 20.5406 513.4 21.9924 514.296 22.8878C515.191 23.7833 516.643 23.7833 517.539 22.8878L521.592 18.8345L525.645 22.8878C526.541 23.7833 527.992 23.7833 528.888 22.8878C529.783 21.9924 529.783 20.5406 528.888 19.6452L524.834 15.5919L528.888 11.5386C529.783 10.6432 529.783 9.19138 528.888 8.29595Z" fill="#F9F9F9"/>
</g>
<path d="M521.592 12.3493L521.238 12.7028L521.592 13.0564L521.945 12.7028L521.592 12.3493ZM517.538 8.29595L517.892 7.94239L517.538 8.29595ZM518.349 15.5919L518.703 15.9454L519.056 15.5919L518.703 15.2383L518.349 15.5919ZM514.296 19.6452L513.942 19.2916L514.296 19.6452ZM521.592 18.8345L521.945 18.481L521.592 18.1274L521.238 18.481L521.592 18.8345ZM525.645 22.8878L525.999 22.5343L525.645 22.8878ZM528.888 19.6452L528.534 19.9987L528.888 19.6452ZM524.834 15.5919L524.481 15.2383L524.127 15.5919L524.481 15.9454L524.834 15.5919ZM525.999 8.6495C526.699 7.94933 527.834 7.94933 528.534 8.6495L529.241 7.9424C528.151 6.8517 526.382 6.8517 525.292 7.94239L525.999 8.6495ZM521.945 12.7028L525.999 8.6495L525.292 7.94239L521.238 11.9957L521.945 12.7028ZM517.185 8.6495L521.238 12.7028L521.945 11.9957L517.892 7.94239L517.185 8.6495ZM514.649 8.6495C515.35 7.94933 516.485 7.94933 517.185 8.6495L517.892 7.94239C516.801 6.8517 515.033 6.8517 513.942 7.94239L514.649 8.6495ZM514.649 11.185C513.949 10.4849 513.949 9.34967 514.649 8.6495L513.942 7.94239C512.852 9.03309 512.852 10.8014 513.942 11.8921L514.649 11.185ZM518.703 15.2383L514.649 11.185L513.942 11.8921L517.996 15.9454L518.703 15.2383ZM514.649 19.9987L518.703 15.9454L517.996 15.2383L513.942 19.2916L514.649 19.9987ZM514.649 22.5343C513.949 21.8341 513.949 20.6989 514.649 19.9987L513.942 19.2916C512.852 20.3823 512.852 22.1507 513.942 23.2414L514.649 22.5343ZM517.185 22.5343C516.485 23.2344 515.35 23.2344 514.649 22.5343L513.942 23.2414C515.033 24.3321 516.801 24.3321 517.892 23.2414L517.185 22.5343ZM521.238 18.481L517.185 22.5343L517.892 23.2414L521.945 19.1881L521.238 18.481ZM525.999 22.5343L521.945 18.481L521.238 19.1881L525.292 23.2414L525.999 22.5343ZM528.534 22.5343C527.834 23.2344 526.699 23.2344 525.999 22.5343L525.292 23.2414C526.382 24.3321 528.151 24.3321 529.241 23.2414L528.534 22.5343ZM528.534 19.9987C529.234 20.6989 529.234 21.8341 528.534 22.5343L529.241 23.2414C530.332 22.1507 530.332 20.3823 529.241 19.2916L528.534 19.9987ZM524.481 15.9454L528.534 19.9987L529.241 19.2916L525.188 15.2383L524.481 15.9454ZM528.534 11.185L524.481 15.2383L525.188 15.9454L529.241 11.8921L528.534 11.185ZM528.534 8.6495C529.234 9.34967 529.234 10.4849 528.534 11.185L529.241 11.8921C530.332 10.8015 530.332 9.03309 529.241 7.9424L528.534 8.6495Z" fill="#BD3A2A"/>
<defs>
<filter id="filter0_d_602_18731" x="103" y="55" width="14.5859" height="22" filterUnits="userSpaceOnUse" color-interpolation-filters="sRGB">
<feFlood flood-opacity="0" result="BackgroundImageFix"/>
<feColorMatrix in="SourceAlpha" type="matrix" values="0 0 0 0 0 0 0 0 0 0 0 0 0 0 0 0 0 0 127 0" result="hardAlpha"/>
<feOffset/>
<feGaussianBlur stdDeviation="1"/>
<feComposite in2="hardAlpha" operator="out"/>
<feColorMatrix type="matrix" values="0 0 0 0 0.431373 0 0 0 0 0.843137 0 0 0 0 0.984314 0 0 0 1 0"/>
<feBlend mode="normal" in2="BackgroundImageFix" result="effect1_dropShadow_602_18731"/>
<feBlend mode="normal" in="SourceGraphic" in2="effect1_dropShadow_602_18731" result="shape"/>
</filter>
<filter id="filter1_d_602_18731" x="102.5" y="54.5" width="15.5859" height="23" filterUnits="userSpaceOnUse" color-interpolation-filters="sRGB">
<feFlood flood-opacity="0" result="BackgroundImageFix"/>
<feColorMatrix in="SourceAlpha" type="matrix" values="0 0 0 0 0 0 0 0 0 0 0 0 0 0 0 0 0 0 127 0" result="hardAlpha"/>
<feOffset/>
<feGaussianBlur stdDeviation="1"/>
<feComposite in2="hardAlpha" operator="out"/>
<feColorMatrix type="matrix" values="0 0 0 0 0.431373 0 0 0 0 0.843137 0 0 0 0 0.984314 0 0 0 1 0"/>
<feBlend mode="normal" in2="BackgroundImageFix" result="effect1_dropShadow_602_18731"/>
<feBlend mode="normal" in="SourceGraphic" in2="effect1_dropShadow_602_18731" result="shape"/>
</filter>
<filter id="filter2_d_602_18731" x="11.4131" y="323.41" width="22.1782" height="16.2312" filterUnits="userSpaceOnUse" color-interpolation-filters="sRGB">
<feFlood flood-opacity="0" result="BackgroundImageFix"/>
<feColorMatrix in="SourceAlpha" type="matrix" values="0 0 0 0 0 0 0 0 0 0 0 0 0 0 0 0 0 0 127 0" result="hardAlpha"/>
<feOffset dy="2"/>
<feGaussianBlur stdDeviation="1"/>
<feComposite in2="hardAlpha" operator="out"/>
<feColorMatrix type="matrix" values="0 0 0 0 0.733333 0 0 0 0 0.992155 0 0 0 0 1 0 0 0 0.2 0"/>
<feBlend mode="normal" in2="BackgroundImageFix" result="effect1_dropShadow_602_18731"/>
<feBlend mode="normal" in="SourceGraphic" in2="effect1_dropShadow_602_18731" result="shape"/>
</filter>
<filter id="filter3_d_602_18731" x="10.9131" y="322.91" width="23.1782" height="17.2312" filterUnits="userSpaceOnUse" color-interpolation-filters="sRGB">
<feFlood flood-opacity="0" result="BackgroundImageFix"/>
<feColorMatrix in="SourceAlpha" type="matrix" values="0 0 0 0 0 0 0 0 0 0 0 0 0 0 0 0 0 0 127 0" result="hardAlpha"/>
<feOffset dy="2"/>
<feGaussianBlur stdDeviation="1"/>
<feComposite in2="hardAlpha" operator="out"/>
<feColorMatrix type="matrix" values="0 0 0 0 0.733333 0 0 0 0 0.992155 0 0 0 0 1 0 0 0 0.2 0"/>
<feBlend mode="normal" in2="BackgroundImageFix" result="effect1_dropShadow_602_18731"/>
<feBlend mode="normal" in="SourceGraphic" in2="effect1_dropShadow_602_18731" result="shape"/>
</filter>
<filter id="filter4_ii_602_18731" x="491.106" y="0.5" width="49.394" height="34" filterUnits="userSpaceOnUse" color-interpolation-filters="sRGB">
<feFlood flood-opacity="0" result="BackgroundImageFix"/>
<feBlend mode="normal" in="SourceGraphic" in2="BackgroundImageFix" result="shape"/>
<feColorMatrix in="SourceAlpha" type="matrix" values="0 0 0 0 0 0 0 0 0 0 0 0 0 0 0 0 0 0 127 0" result="hardAlpha"/>
<feOffset dx="-2" dy="2"/>
<feComposite in2="hardAlpha" operator="arithmetic" k2="-1" k3="1"/>
<feColorMatrix type="matrix" values="0 0 0 0 0.988235 0 0 0 0 0.694118 0 0 0 0 0.588235 0 0 0 1 0"/>
<feBlend mode="normal" in2="shape" result="effect1_innerShadow_602_18731"/>
<feColorMatrix in="SourceAlpha" type="matrix" values="0 0 0 0 0 0 0 0 0 0 0 0 0 0 0 0 0 0 127 0" result="hardAlpha"/>
<feOffset dx="1" dy="-4"/>
<feComposite in2="hardAlpha" operator="arithmetic" k2="-1" k3="1"/>
<feColorMatrix type="matrix" values="0 0 0 0 0.741667 0 0 0 0 0.228844 0 0 0 0 0.163785 0 0 0 1 0"/>
<feBlend mode="normal" in2="effect1_innerShadow_602_18731" result="effect2_innerShadow_602_18731"/>
</filter>
<filter id="filter5_f_602_18731" x="527" y="2.5" width="12" height="12" filterUnits="userSpaceOnUse" color-interpolation-filters="sRGB">
<feFlood flood-opacity="0" result="BackgroundImageFix"/>
<feBlend mode="normal" in="SourceGraphic" in2="BackgroundImageFix" result="shape"/>
<feGaussianBlur stdDeviation="0.5" result="effect1_foregroundBlur_602_18731"/>
</filter>
<filter id="filter6_i_602_18731" x="513.125" y="7.12427" width="16.9346" height="17.9351" filterUnits="userSpaceOnUse" color-interpolation-filters="sRGB">
<feFlood flood-opacity="0" result="BackgroundImageFix"/>
<feBlend mode="normal" in="SourceGraphic" in2="BackgroundImageFix" result="shape"/>
<feColorMatrix in="SourceAlpha" type="matrix" values="0 0 0 0 0 0 0 0 0 0 0 0 0 0 0 0 0 0 127 0" result="hardAlpha"/>
<feOffset dy="2"/>
<feGaussianBlur stdDeviation="0.5"/>
<feComposite in2="hardAlpha" operator="arithmetic" k2="-1" k3="1"/>
<feColorMatrix type="matrix" values="0 0 0 0 0 0 0 0 0 0 0 0 0 0 0 0 0 0 0.3 0"/>
<feBlend mode="normal" in2="shape" result="effect1_innerShadow_602_18731"/>
</filter>
<linearGradient id="paint0_linear_602_18731" x1="270" y1="-57" x2="270" y2="457.5" gradientUnits="userSpaceOnUse">
<stop stop-color="#496297"/>
<stop offset="1" stop-color="#3B4E77"/>
</linearGradient>
<linearGradient id="paint1_linear_602_18731" x1="59" y1="42" x2="59" y2="90" gradientUnits="userSpaceOnUse">
<stop stop-color="#8BEDFC"/>
<stop offset="1" stop-color="#70D9FB"/>
</linearGradient>
<linearGradient id="paint2_linear_602_18731" x1="110.5" y1="59" x2="110.5" y2="73" gradientUnits="userSpaceOnUse">
<stop stop-color="#DCFBFC"/>
<stop offset="1" stop-color="#7EFBEF"/>
</linearGradient>
<linearGradient id="paint3_linear_602_18731" x1="110.293" y1="57" x2="110.293" y2="75" gradientUnits="userSpaceOnUse">
<stop stop-color="white"/>
<stop offset="1" stop-color="#89F8F8"/>
</linearGradient>
<linearGradient id="paint4_linear_602_18731" x1="329.5" y1="-18" x2="329.5" y2="398.922" gradientUnits="userSpaceOnUse">
<stop stop-color="#496297"/>
<stop offset="1" stop-color="#3B4E77"/>
</linearGradient>
<linearGradient id="paint5_linear_602_18731" x1="14.5629" y1="325.143" x2="29.8598" y2="325.73" gradientUnits="userSpaceOnUse">
<stop offset="0.00738551" stop-color="#74F8FC"/>
<stop offset="0.826809" stop-color="#74F8FC"/>
<stop offset="1" stop-color="white"/>
</linearGradient>
<linearGradient id="paint6_linear_602_18731" x1="515" y1="1" x2="515" y2="34" gradientUnits="userSpaceOnUse">
<stop stop-color="#FC6E5E"/>
<stop offset="1" stop-color="#FA4C3C"/>
</linearGradient>
<clipPath id="clip0_602_18731">
<path d="M2 37C2 32.5817 5.58172 29 10 29H539V311H2V37Z" fill="white"/>
</clipPath>
</defs>
</svg>
