<svg width="120" height="120" viewBox="0 0 120 120" fill="none" xmlns="http://www.w3.org/2000/svg">
<rect width="120" height="120" rx="16" fill="#F2F5F9"/>
<g clip-path="url(#clip0_231_17395)">
<path d="M92.5 37.3311H27.5V82.6734H92.5V37.3311Z" fill="#E3E8EF"/>
<path d="M91.6791 80.9077L64.7097 57.9885C61.9686 55.6616 58.024 55.6616 55.2828 57.9885L28.3208 80.9077C26.7014 82.2808 27.6411 85 29.736 85H90.2677C92.3588 85 93.2986 82.2846 91.6828 80.9077H91.6791Z" fill="#CDD5E0"/>
<path opacity="0.5" d="M28.2466 39.0269L55.0117 64.1461C57.842 66.8038 62.158 66.8038 64.9883 64.1461L91.7683 39.0154L28.2466 39.0308V39.0269Z" fill="#97A3B6"/>
<path d="M91.6793 39.0923L64.7099 62.0115C61.9687 64.3385 58.0241 64.3385 55.283 62.0115L28.321 39.0923C26.7016 37.7154 27.6413 35 29.7324 35H90.2641C92.3553 35 93.295 37.7154 91.6793 39.0923Z" fill="white"/>
</g>
<defs>
<clipPath id="clip0_231_17395">
<rect x="27.5" y="35" width="65" height="50" rx="4" fill="white"/>
</clipPath>
</defs>
</svg>
