<svg width="120" height="120" viewBox="0 0 120 120" fill="none" xmlns="http://www.w3.org/2000/svg">
<rect width="120" height="120" rx="16" fill="#F2F5F9"/>
<path d="M32 32.5333C32 30.0296 34.0893 28 36.6667 28H83.3333C85.9107 28 88 30.0296 88 32.5333V91.4667C88 93.9704 85.9107 96 83.3333 96H36.6667C34.0893 96 32 93.9704 32 91.4667V32.5333Z" fill="#E3E8EF"/>
<path d="M36 39.3333C36 38.0447 37.0745 37 38.4 37H81.6C82.9255 37 84 38.0447 84 39.3333V90.6667C84 91.9553 82.9255 93 81.6 93H38.4C37.0745 93 36 91.9553 36 90.6667V39.3333Z" fill="#CDD5E0"/>
<path d="M36 37.3333C36 36.0447 37.0745 35 38.4 35H81.6C82.9255 35 84 36.0447 84 37.3333V88.6667C84 89.9553 82.9255 91 81.6 91H38.4C37.0745 91 36 89.9553 36 88.6667V37.3333Z" fill="white"/>
<path d="M52 27C52 26.4477 52.4477 26 53 26H67C67.5523 26 68 26.4477 68 27V31C68 31.5523 67.5523 32 67 32H53C52.4477 32 52 31.5523 52 31V27Z" fill="#CDD5E0"/>
<path d="M55 24C55 23.4477 55.4477 23 56 23H64C64.5523 23 65 23.4477 65 24V28C65 28.5523 64.5523 29 64 29H56C55.4477 29 55 28.5523 55 28V24Z" fill="#CDD5E0"/>
<path d="M40 44H64V46H40V44Z" fill="#E3E8EF"/>
<path d="M40 50H72V52H40V50Z" fill="#E3E8EF"/>
<path d="M40 56H72V58H40V56Z" fill="#E3E8EF"/>
</svg>
